<?xml version="1.0" encoding="UTF-8"?>
<!DOCTYPE svg PUBLIC "-//W3C//DTD SVG 1.1//EN" "http://www.w3.org/Graphics/SVG/1.1/DTD/svg11.dtd">
<!-- Creator: CorelDRAW 2018 (64 Bit) -->
<svg xmlns="http://www.w3.org/2000/svg" xml:space="preserve" width="8.4128mm" height="8.341mm" version="1.1" style="shape-rendering:geometricPrecision; text-rendering:geometricPrecision; image-rendering:optimizeQuality; fill-rule:evenodd; clip-rule:evenodd"
viewBox="0 0 60.89 60.37"
 xmlns:xlink="http://www.w3.org/1999/xlink">
 <defs>
  <style type="text/css">
   <![CDATA[
    .fil0 {fill:#0F67CB}
   ]]>
  </style>
 </defs>
 <g id="Capa_x0020_1">
  <metadata id="CorelCorpID_0Corel-Layer"/>
  <path class="fil0" d="M1.29 38.79c0.21,1.36 0.94,2.44 1.26,3.68l0.36 0.56c0.64,2.23 4.11,6.52 5.35,7.85 4.35,4.67 10.78,8.21 17.62,9.17 5.18,0.73 7.64,0.1 12.41,-0.62 0.17,-0.11 4.37,-1.35 7.27,-3.03 2.57,-1.5 4.18,-2.79 6.08,-4.54 1.66,-1.54 3.21,-3.52 4.67,-5.8 2.06,-3.2 3.09,-6.85 3.41,-7.27l0.14 -0.73c0.78,-4.65 1.46,-6.88 0.7,-12.09 -0.28,-1.94 -0.69,-3.54 -1.26,-5.33 -0.54,-1.72 -1.49,-3.29 -1.95,-4.65 -0.71,0.26 -2.43,2.14 -3.06,2.78l-8.37 8.39c-3.77,3.72 -7.44,7.35 -11.23,11.06 -0.97,0.95 -3.19,3.52 -4.52,4.01 -0.75,0.28 -1.62,0.27 -2.36,0.02 -1.41,-0.48 -4.61,-4.05 -5.83,-5.23l-5.61 -5.61c-2.48,-2.29 -1.24,-6.08 2.46,-6.26l1.65 0.37 6.29 6.13c0.59,0.58 1.48,1.41 2.04,2.12 0.69,-0.21 1.18,-0.93 1.66,-1.4l10.48 -10.46c1.32,-1.26 11.71,-11.4 11.98,-11.94 -0.7,-0.99 -2.82,-2.84 -3.95,-3.66l-4.47 -2.92c-0.62,-0.18 -1.06,-0.54 -1.66,-0.69l-0.28 -0.22 -3.72 -1.22c-5.23,-1.78 -12.55,-1.48 -17.63,0.19 -9.55,3.13 -16.94,10.33 -19.94,20.02 -1.63,5.27 -1.81,12.05 -0.01,17.37z"/>
 </g>
</svg>
