<?xml version="1.0" encoding="UTF-8"?>
<!DOCTYPE svg PUBLIC "-//W3C//DTD SVG 1.1//EN" "http://www.w3.org/Graphics/SVG/1.1/DTD/svg11.dtd">
<!-- Creator: CorelDRAW 2018 (64 Bit) -->
<svg xmlns="http://www.w3.org/2000/svg" xml:space="preserve" width="217.17mm" height="72.4026mm" version="1.1" style="shape-rendering:geometricPrecision; text-rendering:geometricPrecision; image-rendering:optimizeQuality; fill-rule:evenodd; clip-rule:evenodd"
viewBox="0 0 20057.32 6686.93"
 xmlns:xlink="http://www.w3.org/1999/xlink">
 <defs>
  <style type="text/css">
   <![CDATA[
    .fil2 {fill:#49DDFF;fill-opacity:0.058824}
    .fil3 {fill:#14CFF0;fill-opacity:0.149020}
    .fil0 {fill:white;fill-opacity:0.149020}
    .fil1 {fill:#03BBF8;fill-opacity:0.200000}
    .fil4 {fill:#03BBF8;fill-opacity:0.211765}
   ]]>
  </style>
 </defs>
 <g id="Capa_x0020_1">
  <metadata id="CorelCorpID_0Corel-Layer"/>
  <path class="fil0" d="M15452.01 606.85c-32.98,0 -63.76,4.41 -92.35,13.2 -79.16,-136.32 -228.67,-228.67 -397.97,-228.67 -8.79,0 -15.39,0 -24.19,2.2 -127.52,-233.06 -373.78,-393.57 -657.41,-393.57 -274.84,0 -514.51,147.32 -644.22,367.19 -6.6,0 -13.2,0 -19.79,0 -290.23,0 -525.49,235.26 -525.49,525.5 0,290.23 235.25,525.49 525.49,525.49 83.56,0 164.9,-19.78 235.26,-54.96 120.93,85.75 270.44,136.32 430.95,136.32 204.48,0 389.18,-81.36 523.3,-213.28 50.57,17.59 103.34,28.58 160.5,28.58 125.33,0 239.66,-50.57 323.21,-131.92 48.37,30.78 105.54,48.38 167.1,48.38 171.5,0 312.21,-138.53 312.21,-312.22 0,-173.69 -145.11,-312.21 -316.61,-312.21z"/>
  <path class="fil1" d="M8524.2 3807.39c-589.35,-241.22 -1318.85,-246.19 -1915.4,-14.92l-1437.44 559.54 -1724.93 579.41 -3446.44 1031.19 0 724.31 17191.04 0 -4243.1 -1352.65 -4423.74 -1526.89z"/>
  <path class="fil2" d="M3291.9 3766.58c-406.09,-220.58 -909.18,-223.86 -1318.86,-13.16l-1735.71 895.54 -237.33 104.98 0 1933 9770.01 0 -1756.11 -740.77 -4722 -2179.58z"/>
  <path class="fil3" d="M17865.15 2630.3c-506.7,-353.03 -1124.81,-344.07 -1624.31,22.33l-4571.07 2846.44 -2068.01 1187.86 10455.56 0 0 -2639.19 -2192.16 -1417.44z"/>
  <path class="fil0" d="M17908.03 554.16c-26.39,0 -48.37,4.4 -70.36,8.8 -65.96,-277.05 -316.62,-479.33 -611.24,-479.33 -224.27,0 -422.16,118.73 -536.5,299.03 -39.57,-13.19 -83.55,-17.58 -131.91,-17.58 -241.87,0 -439.75,197.89 -439.75,439.74 0,241.87 197.89,439.75 439.75,439.75 87.95,0 167.1,-26.39 233.06,-70.37 114.33,105.55 263.85,171.51 430.95,171.51 175.9,0 334.21,-70.36 448.53,-189.09 61.57,57.17 145.11,92.35 233.06,92.35 193.49,0 347.4,-153.9 347.4,-347.4 4.39,-193.49 -149.52,-347.4 -343.01,-347.4z"/>
  <path class="fil4" d="M13180.47 4432.88c-589.35,-241.22 -1318.86,-246.19 -1915.4,-14.91l-1437.44 559.52 -1724.94 579.42 -2822.67 1130.01 14187 0 -1862.82 -727.16 -4423.74 -1526.89z"/>
 </g>
</svg>
