<?xml version="1.0" encoding="UTF-8"?>
<!DOCTYPE svg PUBLIC "-//W3C//DTD SVG 1.1//EN" "http://www.w3.org/Graphics/SVG/1.1/DTD/svg11.dtd">
<!-- Creator: CorelDRAW 2018 (64 Bit) -->
<svg xmlns="http://www.w3.org/2000/svg" xml:space="preserve" width="24.0586mm" height="5.0608mm" version="1.1" style="shape-rendering:geometricPrecision; text-rendering:geometricPrecision; image-rendering:optimizeQuality; fill-rule:evenodd; clip-rule:evenodd"
viewBox="0 0 568.4 119.56"
 xmlns:xlink="http://www.w3.org/1999/xlink">
 <defs>
  <style type="text/css">
   <![CDATA[
    .fil0 {fill:white}
    .fil1 {fill:#E6E6E6;fill-rule:nonzero}
    .fil2 {fill:white;fill-rule:nonzero}
   ]]>
  </style>
 </defs>
 <g id="Capa_x0020_1">
  <metadata id="CorelCorpID_0Corel-Layer"/>
  <path class="fil0" d="M2.53 76.32c0.42,2.67 1.86,4.8 2.48,7.24l0.71 1.1c1.25,4.38 8.09,12.82 10.53,15.44 8.57,9.19 21.22,16.15 34.67,18.05 10.18,1.44 15.04,0.21 24.42,-1.23 0.33,-0.21 8.6,-2.65 14.3,-5.96 5.06,-2.94 8.23,-5.48 11.97,-8.94 3.27,-3.03 6.32,-6.93 9.2,-11.41 4.04,-6.3 6.07,-13.48 6.71,-14.3l0.27 -1.44c1.54,-9.15 2.87,-13.55 1.38,-23.79 -0.55,-3.81 -1.36,-6.97 -2.48,-10.49 -1.07,-3.38 -2.93,-6.47 -3.83,-9.15 -1.41,0.52 -4.78,4.21 -6.02,5.47l-16.46 16.5c-7.42,7.33 -14.65,14.47 -22.1,21.75 -1.92,1.88 -6.29,6.92 -8.89,7.89 -1.47,0.55 -3.19,0.53 -4.64,0.04 -2.78,-0.94 -9.08,-7.98 -11.47,-10.3l-11.04 -11.04c-4.88,-4.5 -2.45,-11.96 4.84,-12.33l3.24 0.73 12.37 12.06c1.17,1.14 2.91,2.77 4.03,4.17 1.35,-0.42 2.32,-1.83 3.26,-2.76l20.62 -20.59c2.6,-2.49 23.04,-22.43 23.58,-23.5 -1.37,-1.95 -5.54,-5.58 -7.77,-7.21l-8.79 -5.75c-1.21,-0.35 -2.08,-1.06 -3.26,-1.35l-0.55 -0.44 -7.31 -2.41c-10.28,-3.5 -24.69,-2.91 -34.69,0.37 -18.79,6.16 -33.33,20.34 -39.24,39.4 -3.22,10.38 -3.56,23.7 -0.01,34.18z"/>
  <path class="fil1" d="M188.3 53.03c0,-4.6 -1.34,-8.49 -4.04,-11.65 -2.75,-3.17 -6.36,-5.2 -10.84,-6.1 4.6,-2.63 6.9,-6.75 6.9,-12.37 0,-4.9 -1.55,-8.72 -4.66,-11.47 -2.93,-2.57 -6.87,-3.86 -11.83,-3.86l-15.6 0 0 64 19.99 0c5.62,0 10.37,-1.73 14.25,-5.2 3.88,-3.41 5.83,-7.86 5.83,-13.36zm-11.65 -30.12c0,3.47 -1.14,6.27 -3.41,8.42 -2.27,2.15 -5.14,3.23 -8.6,3.23l-12.82 0 0 -23.3 12.28 0c3.53,0 6.51,1.07 8.96,3.22 2.39,2.03 3.59,4.84 3.59,8.43zm8.07 30.12c0,4.42 -1.61,8.01 -4.84,10.75 -3.17,2.75 -7.02,4.13 -11.56,4.13l-16.49 0 0 -29.67 16.49 0c4.6,0 8.43,1.31 11.47,3.94 3.29,2.75 4.93,6.36 4.93,10.85z"/>
  <polygon id="1" class="fil1" points="202.01,71.58 202.01,7.59 198.42,7.59 198.42,71.58 "/>
  <path class="fil2" d="M260.32 17.18l-8.72 6.99c-2.3,-2.39 -4.39,-4.16 -6.27,-5.35 -1.86,-1.16 -4.56,-1.75 -8.11,-1.75 -3.87,0 -6.99,0.87 -9.4,2.62 -2.41,1.73 -3.61,3.99 -3.61,6.74 0,2.36 1.06,4.48 3.15,6.3 2.11,1.84 5.68,3.82 10.75,6.02 5.05,2.18 9,4.21 11.81,6.06 2.83,1.88 5.13,3.95 6.95,6.21 1.82,2.28 3.15,4.67 4.04,7.18 0.89,2.49 1.33,5.16 1.33,7.97 0,6.55 -2.39,12.12 -7.14,16.73 -4.77,4.63 -10.54,6.93 -17.32,6.93 -6.59,0 -12.42,-1.8 -17.49,-5.41 -5.05,-3.61 -8.94,-9.04 -11.66,-16.25l10.78 -3.06c3.91,8.87 9.89,13.31 17.94,13.31 3.91,0 7.16,-1.16 9.74,-3.48 2.6,-2.35 3.89,-5.28 3.89,-8.83 0,-2.14 -0.68,-4.27 -2.03,-6.4 -1.35,-2.15 -3.02,-3.93 -5.03,-5.3 -2.01,-1.4 -5.2,-3.02 -9.59,-4.86 -4.39,-1.86 -7.78,-3.53 -10.16,-5.05 -2.39,-1.5 -4.44,-3.27 -6.19,-5.37 -1.73,-2.07 -3,-4.14 -3.82,-6.21 -0.8,-2.05 -1.2,-4.27 -1.2,-6.61 0,-5.64 2.26,-10.46 6.8,-14.43 4.54,-3.97 10.06,-5.96 16.52,-5.96 4.31,0 8.66,0.93 13.08,2.79 4.39,1.86 8.07,4.67 11.01,8.47z"/>
  <polygon id="1" class="fil2" points="270.71,8.46 319.14,8.46 319.14,19.23 300.25,19.23 300.25,87.3 289.47,87.3 289.47,19.23 270.71,19.23 "/>
  <path id="2" class="fil2" d="M325.22 47.33c0,-11.39 4.29,-21.13 12.87,-29.24 8.6,-8.11 18.91,-12.17 30.95,-12.17 11.77,0 21.89,4.1 30.4,12.28 8.49,8.18 12.74,17.87 12.74,29.14 0,11.89 -4.21,21.95 -12.59,30.17 -8.41,8.22 -18.7,12.34 -30.91,12.34 -12.06,0 -22.31,-4.14 -30.76,-12.42 -8.47,-8.28 -12.7,-18.32 -12.7,-30.08zm75.55 0.61c0,-8.68 -3.13,-15.99 -9.4,-21.95 -6.27,-5.94 -14.01,-8.92 -23.18,-8.92 -8.71,0 -16.16,3.02 -22.38,9.08 -6.21,6.04 -9.32,13.31 -9.32,21.78 0,8.6 3.19,15.87 9.57,21.83 6.38,5.94 14.18,8.91 23.43,8.91 8.51,0 15.85,-3.04 22.01,-9.11 6.17,-6.06 9.25,-13.29 9.25,-21.63z"/>
  <path id="3" class="fil2" d="M490.01 11.12l0 12.17c-8.49,-4.14 -16.33,-6.21 -23.47,-6.21 -9.15,0 -16.88,2.96 -23.16,8.85 -6.27,5.92 -9.4,13.16 -9.4,21.76 0,8.77 3.21,16.08 9.63,21.95 6.4,5.85 14.45,8.79 24.11,8.79 7.01,0 14.45,-2.2 22.29,-6.59l0 12.3c-7.14,3.8 -14.87,5.7 -23.22,5.7 -12.23,0 -22.67,-4.12 -31.33,-12.38 -8.68,-8.26 -13.02,-18.23 -13.02,-29.9 0,-11.45 4.27,-21.25 12.78,-29.41 8.54,-8.16 18.8,-12.23 30.82,-12.23 7.71,0 15.7,1.73 23.96,5.2z"/>
  <polygon id="4" class="fil2" points="502.82,8.46 513.59,8.46 513.59,40.57 546.93,8.46 562.01,8.46 523.94,45.13 562.27,87.3 548.47,87.3 513.59,48.93 513.59,87.3 502.82,87.3 "/>
  <polygon class="fil2" points="147.65,101.29 151.53,101.29 151.53,119.31 147.65,119.31 "/>
  <polygon id="1" class="fil2" points="167.08,101.29 170.87,101.29 170.87,119.31 167.12,119.31 158.84,107.65 158.84,119.31 154.96,119.31 154.96,101.29 158.79,101.29 167.08,112.87 "/>
  <polygon id="2" class="fil2" points="173.26,101.29 185.38,101.29 185.38,105.11 181.25,105.11 181.25,119.31 177.37,119.31 177.37,105.11 173.26,105.11 "/>
  <polygon id="3" class="fil2" points="187.99,101.29 198.14,101.29 198.14,104.86 191.87,104.86 191.87,108.49 198.14,108.49 198.14,112 191.87,112 191.87,115.74 198.14,115.74 198.14,119.31 187.99,119.31 "/>
  <polygon id="4" class="fil2" points="201.52,101.29 205.4,101.29 205.4,115.43 210.68,115.43 210.68,119.31 201.52,119.31 "/>
  <polygon id="5" class="fil2" points="213.52,101.29 217.4,101.29 217.4,115.43 222.68,115.43 222.68,119.31 213.52,119.31 "/>
  <polygon id="6" class="fil2" points="225.23,101.29 229.11,101.29 229.11,119.31 225.23,119.31 "/>
  <path id="7" class="fil2" d="M248.06 105.2l-2.58 2.42c-0.54,-0.93 -1.21,-1.63 -2.01,-2.09 -0.79,-0.46 -1.63,-0.69 -2.5,-0.69 -1.41,0 -2.63,0.53 -3.67,1.61 -1.04,1.07 -1.56,2.33 -1.56,3.78 0,1.55 0.52,2.85 1.56,3.93 1.04,1.07 2.29,1.61 3.75,1.61 0.8,0 1.56,-0.2 2.3,-0.6 0.73,-0.4 1.33,-1.16 1.77,-2.26l-4.27 0 0 -3.52 8.32 0 0 2.33c0,1.2 -0.41,2.49 -1.24,3.87 -0.82,1.38 -1.91,2.39 -3.25,3.02 -1.34,0.64 -2.7,0.95 -4.08,0.95 -2.49,0 -4.59,-0.9 -6.3,-2.7 -1.71,-1.8 -2.57,-4.04 -2.57,-6.69 0,-2.52 0.88,-4.67 2.64,-6.45 1.76,-1.78 3.88,-2.68 6.36,-2.68 3.16,0 5.6,1.39 7.3,4.16z"/>
  <polygon id="8" class="fil2" points="252.11,101.29 262.26,101.29 262.26,104.86 255.99,104.86 255.99,108.49 262.26,108.49 262.26,112 255.99,112 255.99,115.74 262.26,115.74 262.26,119.31 252.11,119.31 "/>
  <polygon id="9" class="fil2" points="277.47,101.29 281.26,101.29 281.26,119.31 277.5,119.31 269.23,107.65 269.23,119.31 265.35,119.31 265.35,101.29 269.18,101.29 277.47,112.87 "/>
  <path id="10" class="fil2" d="M298.36 102.25l0 4.38c-1.95,-1.16 -3.65,-1.74 -5.12,-1.74 -1.46,0 -2.63,0.5 -3.52,1.51 -0.88,1.01 -1.32,2.36 -1.32,4.06 0,1.61 0.46,2.9 1.39,3.86 0.92,0.96 2.16,1.45 3.71,1.45 1.35,0 2.97,-0.55 4.86,-1.66l0 4.38c-2.11,0.71 -3.88,1.07 -5.29,1.07 -2.42,0 -4.48,-0.89 -6.18,-2.67 -1.69,-1.78 -2.54,-3.95 -2.54,-6.52 0,-2.61 0.86,-4.82 2.59,-6.63 1.72,-1.81 3.82,-2.71 6.29,-2.71 1.59,0 3.3,0.4 5.12,1.21z"/>
  <polygon id="11" class="fil2" points="301.31,101.29 311.46,101.29 311.46,104.86 305.19,104.86 305.19,108.49 311.46,108.49 311.46,112 305.19,112 305.19,115.74 311.46,115.74 311.46,119.31 301.31,119.31 "/>
  <polygon id="12" class="fil2" points="322.25,101.29 332.4,101.29 332.4,104.78 326.14,104.78 326.14,108.46 332.4,108.46 332.4,111.97 326.14,111.97 326.14,119.31 322.25,119.31 "/>
  <path id="13" class="fil2" d="M335.1 110.3c0,-2.66 0.88,-4.86 2.64,-6.6 1.76,-1.73 3.85,-2.6 6.27,-2.6 2.67,0 4.88,0.87 6.63,2.62 1.75,1.75 2.62,3.95 2.62,6.61 0,2.65 -0.87,4.85 -2.6,6.59 -1.73,1.75 -3.91,2.62 -6.53,2.62 -2.63,0 -4.79,-0.87 -6.49,-2.61 -1.7,-1.74 -2.54,-3.95 -2.54,-6.63zm9.1 -5.6c-1.51,-0.03 -2.73,0.49 -3.66,1.56 -0.93,1.07 -1.39,2.46 -1.39,4.15 0,1.6 0.47,2.93 1.42,3.98 0.94,1.05 2.14,1.58 3.58,1.58 1.51,0 2.74,-0.52 3.67,-1.56 0.93,-1.03 1.4,-2.41 1.4,-4.11 0,-1.68 -0.45,-3.02 -1.37,-4.04 -0.91,-1.02 -2.13,-1.54 -3.65,-1.56z"/>
  <path id="14" class="fil2" d="M356.45 101.29l5.95 0c1.81,0 3.24,0.47 4.29,1.42 1.05,0.95 1.58,2.24 1.58,3.86 0,0.92 -0.24,1.89 -0.72,2.88 -0.48,0.99 -1.37,1.78 -2.67,2.34l5.05 7.52 -4.45 0 -4.69 -6.97 -0.45 0 0 6.97 -3.88 0 0 -18.02zm3.88 3.21l0 4.69 0.85 0c2.06,0 3.08,-0.83 3.08,-2.48 0,-0.68 -0.27,-1.22 -0.8,-1.62 -0.53,-0.4 -1.28,-0.6 -2.23,-0.6l-0.91 0z"/>
  <polygon id="15" class="fil2" points="379,101.29 383.3,101.29 386.64,106.86 389.97,101.29 394.32,101.29 388.59,110.88 388.59,119.31 384.73,119.31 384.73,110.88 "/>
  <path id="16" class="fil2" d="M395.05 110.3c0,-2.66 0.88,-4.86 2.64,-6.6 1.76,-1.73 3.85,-2.6 6.27,-2.6 2.67,0 4.88,0.87 6.63,2.62 1.75,1.75 2.62,3.95 2.62,6.61 0,2.65 -0.87,4.85 -2.6,6.59 -1.73,1.75 -3.91,2.62 -6.53,2.62 -2.63,0 -4.79,-0.87 -6.49,-2.61 -1.7,-1.74 -2.54,-3.95 -2.54,-6.63zm9.1 -5.6c-1.51,-0.03 -2.73,0.49 -3.66,1.56 -0.93,1.07 -1.39,2.46 -1.39,4.15 0,1.6 0.47,2.93 1.42,3.98 0.94,1.05 2.14,1.58 3.58,1.58 1.51,0 2.74,-0.52 3.67,-1.56 0.93,-1.03 1.4,-2.41 1.4,-4.11 0,-1.68 -0.45,-3.02 -1.37,-4.04 -0.91,-1.02 -2.13,-1.54 -3.65,-1.56z"/>
  <path id="17" class="fil2" d="M416.45 101.29l3.82 0 0 11.02c0,1.02 0.29,1.85 0.85,2.47 0.57,0.62 1.32,0.93 2.25,0.93 1.07,0 1.89,-0.31 2.48,-0.94 0.59,-0.62 0.88,-1.51 0.88,-2.65l0 -10.83 3.82 0 0 11.67c0,1.02 -0.27,2.08 -0.8,3.19 -0.53,1.1 -1.35,1.94 -2.45,2.53 -1.11,0.59 -2.34,0.88 -3.71,0.88 -2.48,0 -4.29,-0.69 -5.44,-2.07 -1.15,-1.38 -1.72,-2.82 -1.72,-4.34l0 -11.86z"/>
  <path id="18" class="fil2" d="M434.25 101.29l5.95 0c1.81,0 3.24,0.47 4.29,1.42 1.05,0.95 1.58,2.24 1.58,3.86 0,0.92 -0.24,1.89 -0.72,2.88 -0.48,0.99 -1.37,1.78 -2.67,2.34l5.05 7.52 -4.45 0 -4.69 -6.97 -0.45 0 0 6.97 -3.88 0 0 -18.02zm3.88 3.21l0 4.69 0.85 0c2.06,0 3.08,-0.83 3.08,-2.48 0,-0.68 -0.27,-1.22 -0.8,-1.62 -0.53,-0.4 -1.28,-0.6 -2.23,-0.6l-0.91 0z"/>
  <path id="19" class="fil2" d="M458.12 101.29l5.26 0c2.19,0 3.69,0.46 4.5,1.37 0.81,0.92 1.21,1.99 1.21,3.22 0,0.78 -0.15,1.44 -0.44,1.97 -0.29,0.54 -0.76,1.08 -1.42,1.63 1.25,0.43 2.13,1.06 2.65,1.9 0.52,0.83 0.78,1.73 0.78,2.68 0,1.65 -0.57,2.94 -1.7,3.87 -1.14,0.92 -2.74,1.38 -4.79,1.38l-6.04 0 0 -18.02zm3.88 3.01l0 3.96 0.9 0c0.66,0 1.21,-0.21 1.66,-0.63 0.45,-0.42 0.67,-0.94 0.67,-1.56 0,-0.5 -0.22,-0.92 -0.66,-1.26 -0.44,-0.35 -0.99,-0.52 -1.65,-0.52l-0.92 0zm0 7.03l0 4.98 1.4 0c2.14,0 3.21,-0.78 3.21,-2.34 0,-0.85 -0.26,-1.5 -0.78,-1.95 -0.52,-0.45 -1.26,-0.69 -2.23,-0.69l-1.59 0z"/>
  <path id="20" class="fil2" d="M473.07 101.29l3.82 0 0 11.02c0,1.02 0.29,1.85 0.85,2.47 0.57,0.62 1.32,0.93 2.25,0.93 1.07,0 1.89,-0.31 2.48,-0.94 0.59,-0.62 0.88,-1.51 0.88,-2.65l0 -10.83 3.82 0 0 11.67c0,1.02 -0.27,2.08 -0.8,3.19 -0.53,1.1 -1.35,1.94 -2.45,2.53 -1.11,0.59 -2.34,0.88 -3.71,0.88 -2.48,0 -4.29,-0.69 -5.44,-2.07 -1.15,-1.38 -1.72,-2.82 -1.72,-4.34l0 -11.86z"/>
  <path id="21" class="fil2" d="M501.04 102.91l-2.42 2.65c-1.28,-0.75 -2.2,-1.12 -2.76,-1.12 -0.44,0 -0.81,0.16 -1.12,0.49 -0.31,0.32 -0.47,0.71 -0.47,1.15 0,0.89 0.81,1.65 2.42,2.31 1.18,0.51 2.08,0.96 2.68,1.37 0.61,0.41 1.12,0.97 1.53,1.7 0.41,0.72 0.62,1.5 0.62,2.35 0,1.55 -0.63,2.89 -1.88,4.04 -1.25,1.15 -2.73,1.72 -4.44,1.72 -1.87,0 -3.72,-0.88 -5.55,-2.64l2.55 -2.98c1.15,1.18 2.23,1.77 3.23,1.77 0.47,0 0.92,-0.21 1.35,-0.62 0.43,-0.41 0.65,-0.84 0.65,-1.29 0,-0.93 -0.99,-1.76 -2.98,-2.49 -1.13,-0.42 -1.94,-0.82 -2.42,-1.17 -0.48,-0.36 -0.89,-0.89 -1.22,-1.58 -0.33,-0.69 -0.49,-1.4 -0.49,-2.12 0,-1.6 0.52,-2.9 1.57,-3.9 1.04,-1 2.41,-1.5 4.1,-1.5 2,0 3.68,0.62 5.04,1.87z"/>
  <polygon id="22" class="fil2" points="504.11,101.29 507.98,101.29 507.98,119.31 504.11,119.31 "/>
  <polygon id="23" class="fil2" points="523.53,101.29 527.32,101.29 527.32,119.31 523.57,119.31 515.29,107.65 515.29,119.31 511.41,119.31 511.41,101.29 515.24,101.29 523.53,112.87 "/>
  <polygon id="24" class="fil2" points="530.98,101.29 541.13,101.29 541.13,104.86 534.86,104.86 534.86,108.49 541.13,108.49 541.13,112 534.86,112 534.86,115.74 541.13,115.74 541.13,119.31 530.98,119.31 "/>
  <path id="25" class="fil2" d="M554.54 102.91l-2.42 2.65c-1.28,-0.75 -2.2,-1.12 -2.76,-1.12 -0.44,0 -0.81,0.16 -1.12,0.49 -0.31,0.32 -0.47,0.71 -0.47,1.15 0,0.89 0.81,1.65 2.42,2.31 1.18,0.51 2.08,0.96 2.68,1.37 0.61,0.41 1.12,0.97 1.53,1.7 0.41,0.72 0.62,1.5 0.62,2.35 0,1.55 -0.63,2.89 -1.88,4.04 -1.25,1.15 -2.73,1.72 -4.44,1.72 -1.87,0 -3.72,-0.88 -5.55,-2.64l2.55 -2.98c1.15,1.18 2.23,1.77 3.23,1.77 0.47,0 0.92,-0.21 1.35,-0.62 0.43,-0.41 0.65,-0.84 0.65,-1.29 0,-0.93 -0.99,-1.76 -2.98,-2.49 -1.13,-0.42 -1.94,-0.82 -2.42,-1.17 -0.48,-0.36 -0.89,-0.89 -1.22,-1.58 -0.33,-0.69 -0.49,-1.4 -0.49,-2.12 0,-1.6 0.52,-2.9 1.57,-3.9 1.04,-1 2.41,-1.5 4.1,-1.5 2,0 3.68,0.62 5.04,1.87z"/>
  <path id="26" class="fil2" d="M567.92 102.91l-2.42 2.65c-1.28,-0.75 -2.2,-1.12 -2.76,-1.12 -0.44,0 -0.81,0.16 -1.12,0.49 -0.31,0.32 -0.47,0.71 -0.47,1.15 0,0.89 0.81,1.65 2.42,2.31 1.18,0.51 2.08,0.96 2.68,1.37 0.61,0.41 1.12,0.97 1.53,1.7 0.41,0.72 0.62,1.5 0.62,2.35 0,1.55 -0.63,2.89 -1.88,4.04 -1.25,1.15 -2.73,1.72 -4.44,1.72 -1.87,0 -3.72,-0.88 -5.55,-2.64l2.55 -2.98c1.15,1.18 2.23,1.77 3.23,1.77 0.47,0 0.92,-0.21 1.35,-0.62 0.43,-0.41 0.65,-0.84 0.65,-1.29 0,-0.93 -0.99,-1.76 -2.98,-2.49 -1.13,-0.42 -1.94,-0.82 -2.42,-1.17 -0.48,-0.36 -0.89,-0.89 -1.22,-1.58 -0.33,-0.69 -0.49,-1.4 -0.49,-2.12 0,-1.6 0.52,-2.9 1.57,-3.9 1.04,-1 2.41,-1.5 4.1,-1.5 2,0 3.68,0.62 5.04,1.87z"/>
 </g>
</svg>
