<?xml version="1.0" encoding="UTF-8"?>
<!DOCTYPE svg PUBLIC "-//W3C//DTD SVG 1.1//EN" "http://www.w3.org/Graphics/SVG/1.1/DTD/svg11.dtd">
<!-- Creator: CorelDRAW 2018 (64 Bit) -->
<svg xmlns="http://www.w3.org/2000/svg" xml:space="preserve" width="46.5147mm" height="41.964mm" version="1.1" style="shape-rendering:geometricPrecision; text-rendering:geometricPrecision; image-rendering:optimizeQuality; fill-rule:evenodd; clip-rule:evenodd"
viewBox="0 0 3589.48 3238.31"
 xmlns:xlink="http://www.w3.org/1999/xlink">
 <defs>
  <style type="text/css">
   <![CDATA[
    .fil44 {fill:#F05967}
    .fil47 {fill:#F3A033}
    .fil50 {fill:#E98854}
    .fil32 {fill:#C7C8C7}
    .fil37 {fill:#414242}
    .fil53 {fill:#34BA9C}
    .fil28 {fill:#415989}
    .fil27 {fill:#294242}
    .fil34 {fill:#36446D}
    .fil38 {fill:#EF546F;fill-rule:nonzero}
    .fil67 {fill:#F5BA8D;fill-rule:nonzero}
    .fil3 {fill:#F3F4F4;fill-rule:nonzero}
    .fil22 {fill:#EA6558;fill-rule:nonzero}
    .fil6 {fill:#F1F1F0;fill-rule:nonzero}
    .fil64 {fill:#E96837;fill-rule:nonzero}
    .fil8 {fill:#E75547;fill-rule:nonzero}
    .fil65 {fill:#E24537;fill-rule:nonzero}
    .fil68 {fill:#EFB844;fill-rule:nonzero}
    .fil40 {fill:#E14E64;fill-rule:nonzero}
    .fil26 {fill:#DB594D;fill-rule:nonzero}
    .fil60 {fill:#E2E3E3;fill-rule:nonzero}
    .fil21 {fill:#E0E1E0;fill-rule:nonzero}
    .fil4 {fill:#DBDBDB;fill-rule:nonzero}
    .fil31 {fill:#D6DCE7;fill-rule:nonzero}
    .fil63 {fill:#DFC436;fill-rule:nonzero}
    .fil25 {fill:#D2D2D3;fill-rule:nonzero}
    .fil39 {fill:#C9485C;fill-rule:nonzero}
    .fil58 {fill:#CECDCC;fill-rule:nonzero}
    .fil18 {fill:#BB4A3F;fill-rule:nonzero}
    .fil57 {fill:#C1C0C1;fill-rule:nonzero}
    .fil13 {fill:#BCBDBE;fill-rule:nonzero}
    .fil49 {fill:#BDA888;fill-rule:nonzero}
    .fil46 {fill:#BE979B;fill-rule:nonzero}
    .fil52 {fill:#BDA595;fill-rule:nonzero}
    .fil62 {fill:#C2D83E;fill-rule:nonzero}
    .fil17 {fill:#B2B2B2;fill-rule:nonzero}
    .fil45 {fill:#7E3A40;fill-rule:nonzero}
    .fil42 {fill:#ADB2BA;fill-rule:nonzero}
    .fil51 {fill:#7B4E38;fill-rule:nonzero}
    .fil56 {fill:#A6A7A7;fill-rule:nonzero}
    .fil48 {fill:#7D5934;fill-rule:nonzero}
    .fil33 {fill:#9E9F9E;fill-rule:nonzero}
    .fil7 {fill:#9A9B9C;fill-rule:nonzero}
    .fil70 {fill:#64483B;fill-rule:nonzero}
    .fil61 {fill:#9CCB48;fill-rule:nonzero}
    .fil35 {fill:#8E8E8E;fill-rule:nonzero}
    .fil72 {fill:#543F35;fill-rule:nonzero}
    .fil55 {fill:#89B0AA;fill-rule:nonzero}
    .fil12 {fill:#7B7A7B;fill-rule:nonzero}
    .fil36 {fill:#747475;fill-rule:nonzero}
    .fil41 {fill:#59C1AD;fill-rule:nonzero}
    .fil14 {fill:#585959;fill-rule:nonzero}
    .fil23 {fill:#4CBEA6;fill-rule:nonzero}
    .fil24 {fill:#383B2F;fill-rule:nonzero}
    .fil10 {fill:#4B4B4B;fill-rule:nonzero}
    .fil11 {fill:#404141;fill-rule:nonzero}
    .fil66 {fill:#36BDAF;fill-rule:nonzero}
    .fil71 {fill:#45B5A5;fill-rule:nonzero}
    .fil15 {fill:#34BA9C;fill-rule:nonzero}
    .fil9 {fill:#5089C6;fill-rule:nonzero}
    .fil43 {fill:#3DA892;fill-rule:nonzero}
    .fil5 {fill:#2BA189;fill-rule:nonzero}
    .fil19 {fill:#2D9880;fill-rule:nonzero}
    .fil30 {fill:#3A766C;fill-rule:nonzero}
    .fil20 {fill:#435366;fill-rule:nonzero}
    .fil2 {fill:#43506D;fill-rule:nonzero}
    .fil54 {fill:#2E6657;fill-rule:nonzero}
    .fil16 {fill:#3C455A;fill-rule:nonzero}
    .fil29 {fill:#32394D;fill-rule:nonzero}
    .fil59 {fill:#36446D;fill-rule:nonzero}
    .fil1 {fill:#074B8F;fill-rule:nonzero}
    .fil73 {fill:#A85C0A;fill-rule:nonzero}
    .fil69 {fill:#ED8B21;fill-rule:nonzero}
    .fil0 {fill:white;fill-opacity:0.149020}
   ]]>
  </style>
 </defs>
 <g id="Capa_x0020_1">
  <metadata id="CorelCorpID_0Corel-Layer"/>
  <g id="_1893989956400">
   <path class="fil0" d="M2719.47 1245.49c-14.7,0 -29.39,0 -44.09,3.67 -44.09,-176.36 -202.08,-304.96 -389.47,-304.96 -143.29,0 -268.22,77.16 -338.03,187.39 -25.73,-7.35 -55.12,-11.02 -84.52,-11.02 -154.31,0 -279.24,124.92 -279.24,279.24 0,154.32 124.93,279.24 279.24,279.24 55.12,0 106.55,-14.7 150.65,-44.09 69.81,66.14 169.01,106.55 271.89,106.55 110.23,0 213.11,-44.09 282.92,-117.57 40.41,36.74 91.85,58.79 150.64,58.79 121.25,0 220.46,-99.2 220.46,-220.46 0.01,-117.57 -99.19,-216.78 -220.45,-216.78z"/>
   <path class="fil1" d="M3235.18 1600.08c0,799.89 -648.43,1448.2 -1448.31,1448.2 -799.87,0 -1448.29,-648.31 -1448.29,-1448.2 0,-799.89 648.42,-1448.36 1448.29,-1448.36 799.88,0 1448.31,648.46 1448.31,1448.36z"/>
   <polygon class="fil2" points="1272.98,869.37 2455.49,869.37 2455.49,108.92 1272.98,108.92 "/>
   <polygon class="fil3" points="1318.71,843.24 2416.31,843.24 2416.31,137.65 1318.71,137.65 "/>
   <path class="fil4" d="M2376.74 843.24l-849.15 0c1.61,-3.56 2.48,-7.86 2.48,-12.32l0 -112.23 73.87 0 -1.34 10.98 0 0c-0.02,0.15 -0.03,0.15 -0.03,0.3 0,0 -0.02,0 -0.02,0.15 -0.02,0 -0.02,0.15 -0.02,0.15 -0.02,0 -0.02,0 -0.02,0.15 -0.02,0 -0.02,0 -0.02,0.15 0,0 -0.02,0 -0.02,0.15 0,0 0,0 -0.02,0 -1.11,12.92 5.9,24.79 16.04,26.87 1,0.15 1.98,0.29 2.96,0.29 0.53,0 1.05,0 1.57,-0.15 0.24,0 1.01,0 2.14,-0.29 3.36,-0.9 6.44,-2.97 8.95,-5.8 3.39,-3.41 5.48,-8.6 6.19,-14.4l2.26 -18.55 187.5 0 0 -27.62 -184.15 0 4.08 -33.4 180.07 0 0 -27.46 -176.69 0 7.79 -63.99 168.9 0 0 -27.61 -165.53 0 2.52 -20.63 163 0 0 -27.62 -159.63 0 2.43 -19.89 157.2 0 0 -27.62 -153.83 0 2.96 -24.35c0.97,0.9 2.1,1.49 3.31,1.64 0.42,0.15 0.85,0.15 1.27,0.15 3.92,0 7.36,-3.57 7.99,-8.76l7.08 -58.05 131.22 0 0 -27.46 -127.87 0 2.32 -18.85 125.55 0 0 -27.62 -123.44 0c-1.07,-3.26 -3.34,-5.64 -6.19,-6.24 -0.43,0 -0.85,0 -1.28,0 -0.79,0 -1.54,0.15 -2.27,0.3l1.99 -16.33c0.01,0 0.02,-0.15 0.04,-0.3 0,0 0,0 0,0 0.02,-0.15 0.02,-0.15 0.03,-0.29 0,0 0,0 0,0 0.02,-0.15 0.03,-0.15 0.03,-0.3 0,0 0,0 0,0 0.02,-0.15 0.02,-0.15 0.02,-0.29 0.02,0 0.02,0 0.02,0 0.02,-0.15 0.02,-0.15 0.02,-0.3 0,0 0,0 0,0 0.03,-0.15 0.03,-0.44 0.05,-0.59 0,0 0,0 0,0 0.01,-0.15 0.01,-0.29 0.01,-0.29 0,0 0,0 0,-0.15 0,0 0,-0.15 0.02,-0.15 0,0 0,0 0,-0.15 0,0 0,-0.15 0,-0.15 0,0 0,0 0.02,-0.15 0,0 0,-0.15 0,-0.15 0,0 0,0 0,-0.15 0,0 0,0 0,-0.15 0,0 0,-0.15 0,-0.3 0,0 0,0 0,0 0,-0.15 0,-0.15 0,-0.29 0,0 0,0 0,0 0,-0.15 0,-0.15 -0.02,-0.29 0,0 0,0 0,0 0,-0.15 0,-0.15 0,-0.3 0,0 0,0 0,0 -0.37,-11.28 -6.98,-21.23 -16.14,-23.01 -1.01,-0.29 -1.99,-0.29 -2.97,-0.29 -5.66,0 -10.92,3.26 -14.47,8.46 0,0 0,0 -0.02,0 -0.03,0.15 -0.06,0.15 -0.09,0.15 -0.02,0 -0.05,0.15 -0.05,0.15 -0.02,0 -0.03,0 -0.05,0 -0.03,0.15 -0.08,0.15 -0.11,0.15 0,0.15 -0.02,0.15 -0.02,0.15 -1.97,2.97 -3.36,6.83 -3.96,10.99 0,0 0,0 0,0 -0.02,0.15 -0.03,0.15 -0.03,0.29 0,0 -0.02,0 -0.02,0 -0.02,0.15 -0.02,0.15 -0.03,0.3l0 0 -3.62 29.69 -225.83 0 -0.69 -4.01c-1.94,-11.43 -9.82,-19.3 -18.61,-19.3 -1.35,0 -2.72,0.15 -4.08,0.59 -10.17,2.82 -16.68,15.44 -14.69,28.51 0,0 0,0 0.02,0 0.02,0.15 0.02,0.15 0.03,0.29 0.02,0 0.03,0.15 0.05,0.15l26.71 157.07 -9.96 0 0 27.62 14.65 0 3.4 19.89 -18.05 0 0 27.62 22.74 0 3.5 20.63 -26.25 0 0 27.61 30.94 0 10.87 63.99 -41.8 0 0 27.46 46.49 0 5.69 33.4 -52.18 0 0 27.62 56.87 0 7.09 41.71c0.72,4.16 2.23,7.87 4.29,10.84 0.03,0.15 0.05,0.15 0.08,0.15 0.02,0 0.02,0 0.03,0 3.3,4.75 7.99,7.72 13.03,8.16l0 51.37c0,0.15 0,0.29 0,0.29 0,0 0,0.15 0,0.15 0,0 0,0.15 0,0.15 0,0 0,0.15 0,0.15 0,0 0.02,0.15 0.02,0.15 0,0 0,0.15 0,0.15 0,0 0,0.15 0,0.15 0,0 0,0.15 0,0.15 0,0 0.02,0.15 0.02,0.15 0,0.15 0,0.15 0,0.29 0.02,0 0.02,0 0.02,0.15 0,0 0.02,0 0.02,0.15 0,0 0,0 0,0 0,0.15 0.02,0.15 0.02,0.15 0,0.15 0.02,0.15 0.02,0.15 0,0.15 0,0.15 0,0.15 0.01,0.15 0.01,0.15 0.01,0.15 0.3,3.41 1.16,6.68 2.48,9.65l-116.96 0 0 -705.62 1038.8 0 -39.57 0 0 705.62zm-769.43 -152.17l-77.25 0 0 -33.4 81.33 0 -4.08 33.4zm7.43 -60.86l-84.68 0 0 -63.99 92.49 0 -7.81 63.99zm-122.86 0l-0.52 0 -10.87 -63.99 11.39 0 0 63.99zm134.03 -91.6l-95.84 0 0 -20.63 98.37 0 -2.52 20.63zm-134.03 0l-16.08 0 -3.51 -20.63 19.59 0 0 20.63zm139.92 -48.25l-101.74 0 0 -19.89 104.17 0 -2.43 19.89zm-139.92 0l-24.29 0 -3.4 -19.89 27.69 0 0 19.89zm145.73 -47.51l-107.54 0 0 -89.37 118.44 0 -10.9 89.37zm-145.73 0l-32.4 0 -1.35 -8.02c0.59,0.15 1.22,0.3 1.84,0.3 0.56,0 1.14,-0.15 1.72,-0.3 4.36,-1.18 7.15,-6.68 6.19,-12.32l-11.75 -69.04 35.74 0 0 89.37zm159.99 -116.83l-129.27 0c-3.22,-3.26 -7.25,-5.05 -11.65,-5.05 -4.38,0 -8.42,1.78 -11.64,5.05l-47.87 0 -3.2 -18.85 205.92 0 -2.3 18.85z"/>
   <polygon class="fil5" points="1930.99,201.9 2350.59,201.9 2350.59,174.31 1930.99,174.31 "/>
   <polygon class="fil5" points="1930.99,265 2350.59,265 2350.59,237.4 1930.99,237.4 "/>
   <polygon class="fil5" points="1917.92,339.82 2337.53,339.82 2337.53,312.22 1917.92,312.22 "/>
   <polygon class="fil5" points="1917.92,395.64 2337.53,395.64 2337.53,368.05 1917.92,368.05 "/>
   <polygon class="fil5" points="1917.92,456.65 2337.53,456.65 2337.53,429.07 1917.92,429.07 "/>
   <polygon class="fil5" points="1917.92,552.41 2337.53,552.41 2337.53,524.82 1917.92,524.82 "/>
   <polygon class="fil6" points="2217.75,940.93 1864.24,843.24 1867.51,137.03 2217.75,0 "/>
   <polygon class="fil7" points="2376.74,843.24 2416.32,843.24 2416.32,137.65 2376.74,137.65 "/>
   <polygon class="fil8" points="1410.48,201.9 1830.08,201.9 1830.08,174.31 1410.48,174.31 "/>
   <polygon class="fil8" points="1410.48,307.16 1830.08,307.16 1830.08,279.56 1410.48,279.56 "/>
   <polygon class="fil8" points="1410.48,353.48 1830.08,353.48 1830.08,325.9 1410.48,325.9 "/>
   <polygon class="fil8" points="1410.48,470.47 1830.08,470.47 1830.08,442.88 1410.48,442.88 "/>
   <polygon class="fil9" points="1410.48,517.97 1830.08,517.97 1830.08,490.38 1410.48,490.38 "/>
   <polygon class="fil9" points="1410.48,566.22 1830.08,566.22 1830.08,538.64 1410.48,538.64 "/>
   <polygon class="fil5" points="1410.48,657.67 1830.08,657.67 1830.08,630.09 1410.48,630.09 "/>
   <polygon class="fil5" points="1410.48,718.69 1830.08,718.69 1830.08,691.09 1410.48,691.09 "/>
   <path class="fil10" d="M1511.76 750.01c2.24,13.21 -4.29,26.13 -14.61,29.09 -10.3,2.82 -20.46,-5.49 -22.7,-18.71l-80.71 -474.62c-2.25,-13.06 4.29,-26.13 14.59,-28.95 10.3,-2.82 20.47,5.49 22.7,18.71l80.73 474.47z"/>
   <path class="fil11" d="M1491.88 721.95l-79.21 -465.71c8.67,0.15 16.42,8.02 18.35,19.3l2.75 16.04c-2.39,2.37 -3.63,6.38 -2.96,10.39l21.24 125.01c0.69,4.01 3.13,6.98 6.07,7.86l33.75 198.34 0 88.78z"/>
   <path class="fil12" d="M1467.89 422.51c0.96,5.64 -1.83,11.14 -6.19,12.32 -4.35,1.34 -8.69,-2.22 -9.64,-7.86l-21.24 -125.01c-0.95,-5.49 1.81,-10.98 6.18,-12.32 4.38,-1.19 8.68,2.37 9.65,8.01l21.24 124.86z"/>
   <path class="fil13" d="M1478.85 771.39c-0.02,0 -0.02,0 -0.03,0 0.02,0 0.02,0 0.03,0zm-0.11 -0.15c-2.06,-2.97 -3.57,-6.68 -4.29,-10.84l-7.09 -41.71 7.09 41.71c0.72,4.16 2.23,7.87 4.29,10.84zm-58.29 -328.39l0 0 -26.71 -157.07c-0.02,0 -0.03,-0.15 -0.05,-0.15 0.02,0 0.03,0.15 0.05,0.15l26.71 157.07z"/>
   <path class="fil13" d="M1393.66 285.34c-0.02,0 -0.02,0 -0.02,0 0,0 0,0 0.02,0z"/>
   <path class="fil14" d="M1491.88 779.55c-5.05,-0.45 -9.74,-3.41 -13.03,-8.16 -0.02,0 -0.02,0 -0.03,0 -0.03,0 -0.05,0 -0.08,-0.15 -2.06,-2.97 -3.57,-6.68 -4.29,-10.84l-7.09 -41.71 -46.91 -275.84 -26.71 -157.07c-0.02,0 -0.03,-0.15 -0.05,-0.15 -0.02,-0.15 -0.02,-0.15 -0.03,-0.29 -0.02,0 -0.02,0 -0.02,0 -1.63,-10.69 2.51,-21.23 9.71,-26.13l88.53 520.34z"/>
   <path class="fil15" d="M1530.06 830.92c0,13.5 -8.55,24.49 -19.11,24.49 -10.53,0 -19.08,-10.99 -19.08,-24.49l0 -485.61c0,-13.51 8.55,-24.35 19.08,-24.35 10.56,0 19.11,10.83 19.11,24.35l0 485.61z"/>
   <path class="fil16" d="M1525.71 846.51c0.66,-1.04 1.23,-2.23 1.75,-3.27l0.12 0c-0.55,1.19 -1.17,2.23 -1.88,3.27z"/>
   <path class="fil17" d="M1527.59 843.24l-0.12 0c1.65,-3.56 2.6,-7.86 2.6,-12.32l0 -112.23 0 112.23c0,4.45 -0.86,8.76 -2.48,12.32z"/>
   <path class="fil18" d="M1530.06 345.31c0,-0.15 0,-0.15 0,-0.3 0,0.15 0,0.15 0,0.3zm0 -0.45c0,0 0,-0.15 0,-0.15 0,0 0,0.15 0,0.15zm-0.02 -0.29c0,0 0,-0.15 0,-0.15 0,0 0,0.15 0,0.15zm0 -0.3c-0.02,0 -0.02,-0.15 -0.02,-0.15 0,0 0,0.15 0.02,0.15zm-0.02 -0.29c0,0 0,0 -0.02,-0.15 0.02,0.15 0.02,0.15 0.02,0.15zm-0.02 -0.3c0,0 0,0 0,-0.15 0,0.15 0,0.15 0,0.15zm-0.03 -0.44c0,0 0,0 0,0 0,0 0,0 0,0zm-0.02 -0.3c0,0 0,0 0,0 0,0 0,0 0,0zm-0.02 -0.29c0,0 0,0 0,0 0,0 0,0 0,0zm-0.02 -0.3c0,0 0,0 0,0 0,0 0,0 0,0z"/>
   <path class="fil19" d="M1515.29 854.37l0 -532.81c7.72,2.22 13.66,10.54 14.64,20.78 0,0 0,0 0,0 0,0.15 0,0.15 0.02,0.3 0,0 0,0 0,0 0.02,0.15 0.02,0.15 0.02,0.29 0,0 0,0 0,0 0,0 0.02,0.15 0.02,0.3 0,0 0,0 0,0 0.02,0.15 0.02,0.29 0.03,0.29 0,0.15 0,0.15 0,0.15 0,0 0,0.15 0,0.15 0.02,0.15 0.02,0.15 0.02,0.15 0,0 0,0.15 0,0.15 0,0 0,0.15 0.02,0.15 0,0 0,0.15 0,0.15 0,0 0,0.15 0,0.15 0,0 0,0.15 0.02,0.15 0,0 0,0.15 0,0.15 0,0.15 0,0.15 0,0.15 0,0.15 0,0.15 0,0.3l0 485.61c0,4.45 -0.95,8.76 -2.6,12.32l0 0c-0.52,1.04 -1.1,2.23 -1.75,3.27 -0.02,0 -0.02,0 -0.03,0 -5.77,7.86 -10.39,7.86 -10.39,7.86z"/>
   <path class="fil20" d="M1541.63 499.11c0,5.65 -3.64,10.25 -8.11,10.25 -4.47,0 -8.09,-4.6 -8.09,-10.25l0 -127.97c0,-5.64 3.62,-10.24 8.09,-10.24 4.47,0 8.11,4.6 8.11,10.24l0 127.97z"/>
   <path class="fil21" d="M1491.98 833.59c0,0 0,0 -0.01,-0.15 0.01,0.15 0.01,0.15 0.01,0.15zm-0.01 -0.3c0,0 -0.02,0 -0.02,-0.15 0,0.15 0.02,0.15 0.02,0.15zm-0.03 -0.29c0,0 0,0 0,0 0,0 0,0 0,0zm-0.02 -0.15c0,-0.15 0,-0.15 -0.02,-0.15 0.02,0 0.02,0 0.02,0.15zm-0.02 -0.45c0,0 -0.02,-0.15 -0.02,-0.15 0,0 0.02,0.15 0.02,0.15zm-0.02 -0.3c0,0 0,-0.15 0,-0.15 0,0 0,0.15 0,0.15zm0 -0.29c0,0 -0.02,-0.15 -0.02,-0.15 0,0 0.02,0.15 0.02,0.15zm-0.02 -0.29c0,0 0,-0.15 0,-0.15 0,0 0,0.15 0,0.15zm0 -0.3c0,0 0,-0.15 0,-0.29l0 0c0,0.15 0,0.29 0,0.29z"/>
   <path class="fil22" d="M1491.88 345.31c0,-0.15 0,-0.15 0,-0.3 0,0.15 0,0.15 0,0.3zm0 -0.45c0,0 0,-0.15 0,-0.15 0,0 0,0.15 0,0.15zm0 -0.29c0,0 0.02,-0.15 0.02,-0.15 0,0.15 -0.02,0.15 -0.02,0.15zm0.02 -0.3c0,0 0,0 0,-0.15 0,0.15 0,0.15 0,0.15zm0 -0.29c0,0 0.02,0 0.02,0 0,0 -0.02,0 -0.02,0zm0.03 -0.45c0,0 0,0 0,0 0,0 0,0 0,0zm0.02 -0.29c0,0 0,0 0,0 0,0 0,0 0,0zm0.02 -0.3c0,0 0,0 0.02,0 -0.02,0 -0.02,0 -0.02,0z"/>
   <path class="fil23" d="M1505.73 854.37c-7.35,-2.67 -12.92,-10.83 -13.75,-20.78 0,0 0,0 -0.01,-0.15 0,0 0,0 0,-0.15 0,0 -0.02,0 -0.02,-0.15 0,0 -0.02,0 -0.02,-0.15 0,0 0,0 0,0 0,-0.15 -0.02,-0.15 -0.02,-0.15 0,-0.15 0,-0.15 -0.02,-0.15 0,-0.15 0,-0.15 0,-0.29 0,0 -0.02,-0.15 -0.02,-0.15 0,0 0,-0.15 0,-0.15 0,0 0,-0.15 0,-0.15 0,0 0,-0.15 0,-0.15 0,0 -0.02,-0.15 -0.02,-0.15 0,0 0,-0.15 0,-0.15 0,0 0,-0.15 0,-0.15 0,0 0,-0.15 0,-0.15 0,0 0,-0.15 0,-0.29l0 -485.61c0,-0.15 0,-0.15 0,-0.3 0,0 0,0 0,-0.15 0,0 0,-0.15 0,-0.15 0,0 0,0 0,-0.15 0,0 0.02,0 0.02,-0.15 0,0 0,0 0,-0.15 0,0 0,0 0,-0.15 0,0 0,0 0,-0.15 0,0 0.02,0 0.02,0 0,-0.15 0,-0.3 0.02,-0.45 0,0 0,0 0,0 0,-0.15 0.02,-0.15 0.02,-0.29 0,0 0,0 0,0 0,-0.15 0.02,-0.15 0.02,-0.3 0,0 0,0 0.02,0 0.74,-10.09 6.34,-18.4 13.76,-21.08l0 532.52z"/>
   <path class="fil8" d="M1640.32 737.24c-1.64,13.22 -11.4,22.42 -21.81,20.34 -10.42,-2.08 -17.55,-14.55 -15.91,-27.91l58.56 -479.81c1.64,-13.37 11.39,-22.42 21.81,-20.34 10.43,2.08 17.55,14.55 15.92,27.77l-58.57 479.96z"/>
   <path class="fil17" d="M1623.04 757.73c0.73,0 1.44,-0.15 2.14,-0.29 -1.13,0.29 -1.9,0.29 -2.14,0.29zm11.09 -6.09c3.2,-3.56 5.48,-8.6 6.19,-14.4l2.26 -18.55 -2.26 18.55c-0.71,5.8 -2.8,10.99 -6.19,14.4z"/>
   <path class="fil17" d="M1696.9 273.61l1.99 -16.33c0.01,0 0.02,-0.15 0.04,-0.3 -0.02,0.15 -0.03,0.3 -0.04,0.3l-1.99 16.33 0 0zm2.03 -16.63c0.02,-0.15 0.02,-0.15 0.03,-0.29 -0.02,0.15 -0.02,0.15 -0.03,0.29zm0.03 -0.29c0.02,-0.15 0.03,-0.15 0.03,-0.3 0,0.15 -0.02,0.15 -0.03,0.3zm0.03 -0.3c0.02,-0.15 0.02,-0.15 0.02,-0.29 0,0.15 0,0.15 -0.02,0.29zm0.03 -0.29c0.02,-0.15 0.02,-0.15 0.02,-0.3 0,0.15 0,0.15 -0.02,0.3zm0.02 -0.3c0.03,-0.15 0.03,-0.44 0.05,-0.59 -0.02,0.15 -0.02,0.45 -0.05,0.59zm0.05 -0.59c0.01,-0.15 0.01,-0.29 0.01,-0.29 0,0 0,0.15 -0.01,0.29zm0.01 -0.44c0,0 0,-0.15 0.02,-0.15 -0.02,0 -0.02,0.15 -0.02,0.15zm0.02 -0.3c0,0 0,-0.15 0,-0.15 0,0 0,0.15 0,0.15zm0.02 -0.29c0,0 0,-0.15 0,-0.15 0,0 0,0.15 0,0.15zm0 -0.3c0,0 0,0 0,-0.15 0,0.15 0,0.15 0,0.15zm0 -0.45c0,0 0,0 0,0 0,0 0,0 0,0zm0 -0.29c0,0 0,0 0,0 0,0 0,0 0,0zm-0.02 -0.29c0,0 0,0 0,0 0,0 0,0 0,0zm0 -0.3c0,0 0,0 0,0 0,0 0,0 0,0z"/>
   <path class="fil18" d="M1622.97 757.73l64.21 -526.72c6.91,3.56 11.62,12.02 11.93,21.52 0,0 0,0 0,0 0,0.15 0,0.15 0,0.3 0,0 0,0 0,0 0.02,0.15 0.02,0.15 0.02,0.29 0,0 0,0 0,0 0,0.15 0,0.15 0,0.29 0,0 0,0 0,0 0,0.15 0,0.3 0,0.3 0,0.15 0,0.15 0,0.15 0,0.15 0,0.15 0,0.15 0,0 0,0.15 0,0.15 -0.02,0.15 -0.02,0.15 -0.02,0.15 0,0 0,0.15 0,0.15 0,0.15 0,0.15 0,0.15 -0.02,0 -0.02,0.15 -0.02,0.15 0,0.15 0,0.15 0,0.15 0,0 0,0.15 -0.01,0.29 0,0 0,0 0,0 -0.02,0.15 -0.02,0.45 -0.05,0.59 0,0 0,0 0,0 0,0.15 0,0.15 -0.02,0.3 0,0 0,0 -0.02,0 0,0.15 0,0.15 -0.02,0.29 0,0 0,0 0,0 0,0.15 -0.02,0.15 -0.03,0.3 0,0 0,0 0,0 -0.02,0.15 -0.02,0.15 -0.03,0.29 0,0 0,0 0,0 -0.02,0.15 -0.03,0.3 -0.04,0.3l-1.99 16.33c-2.89,1.19 -5.2,4.31 -5.7,8.46l-15.43 126.34c-0.5,4.01 0.95,7.87 3.44,10.09l-2.96 24.35 -3.37 27.62 -2.43 19.89 -3.37 27.62 -2.52 20.63 -3.37 27.61 -7.79 63.99 -3.37 27.46 -4.08 33.4 -3.35 27.62 -2.26 18.55c-0.71,5.8 -2.99,10.84 -6.19,14.4 0,0 0,0 0,0 -3.55,3.71 -6.86,5.2 -8.95,5.8 -0.7,0.15 -1.41,0.29 -2.14,0.29 -0.06,0 -0.08,0 -0.08,0z"/>
   <path class="fil24" d="M1691.78 411.53c-0.69,5.64 -4.82,9.5 -9.25,8.61 -4.41,-0.9 -7.45,-6.09 -6.75,-11.73l15.43 -126.34c0.68,-5.79 4.82,-9.65 9.25,-8.76 4.42,0.9 7.43,6.24 6.75,11.88l-15.43 126.34z"/>
   <path class="fil25" d="M1602.48 730.71c0.02,0 0.02,0 0.02,0 0,0 0,0 -0.02,0zm0.03 -0.15c0,-0.15 0,-0.15 0.02,-0.15 -0.02,0 -0.02,0 -0.02,0.15zm0.03 -0.3c0,0 0,-0.15 0.02,-0.15 -0.02,0 -0.02,0.15 -0.02,0.15zm0.03 -0.29c0,-0.15 0.02,-0.15 0.03,-0.3 -0.02,0.15 -0.03,0.15 -0.03,0.3zm58.59 -480.11c0.02,-0.15 0.02,-0.15 0.03,-0.3 -0.02,0.15 -0.02,0.15 -0.03,0.3zm0.05 -0.3c0,-0.15 0.02,-0.15 0.03,-0.29 -0.02,0.15 -0.03,0.15 -0.03,0.29zm0.03 -0.29c0.59,-4.16 1.99,-8.02 3.96,-10.99 -1.97,2.97 -3.36,6.83 -3.96,10.99zm3.97 -11.14c0.03,0 0.08,0 0.11,-0.15 -0.03,0.15 -0.08,0.15 -0.11,0.15zm0.15 -0.15c0.01,0 0.04,-0.15 0.05,-0.15 -0.02,0 -0.05,0.15 -0.05,0.15zm0.15 -0.3c0.02,0 0.02,0 0.02,0 0,0 0,0 -0.02,0z"/>
   <path class="fil26" d="M1613.45 755.51c-7.29,-4.31 -11.89,-14.11 -10.97,-24.79 0.02,0 0.02,0 0.02,0 0,-0.15 0.02,-0.15 0.02,-0.15 0,-0.15 0,-0.15 0.02,-0.15 0,-0.15 0,-0.15 0.02,-0.15 0,0 0,-0.15 0.02,-0.15 0,-0.15 0.02,-0.15 0.02,-0.15 0,-0.15 0.02,-0.15 0.03,-0.3l0 0 58.56 -479.81 0 0c0.02,-0.15 0.02,-0.15 0.03,-0.3 0,0 0.02,0 0.02,0 0,-0.15 0.02,-0.15 0.03,-0.29 0,0 0,0 0,0 0.59,-4.16 1.99,-8.02 3.96,-10.99 0,0 0.02,0 0.02,-0.15 0.03,0 0.08,0 0.11,-0.15 0.02,0 0.03,0 0.05,0 0.01,0 0.04,-0.15 0.05,-0.15 0.03,0 0.06,0 0.09,-0.15 0.02,0 0.02,0 0.02,0 3.06,-4.45 7.38,-7.57 12.15,-8.31l-64.24 526.14z"/>
   <polygon class="fil27" points="2509.4,1580.63 3314.12,1580.63 3314.12,1543.27 2509.4,1543.27 "/>
   <path class="fil28" d="M2283.31 1122.94c1.06,-0.3 2.12,-0.3 3.21,-0.45 -1.09,0.15 -2.15,0.15 -3.21,0.45zm-5.29 1.04c0.82,-0.15 1.65,-0.3 2.48,-0.45 -0.83,0.15 -1.67,0.29 -2.48,0.45zm-5.11 1.48c0.64,-0.15 1.31,-0.3 1.96,-0.59 -0.65,0.29 -1.32,0.45 -1.96,0.59zm-4.91 1.93c0.52,-0.29 1.03,-0.45 1.53,-0.59 -0.49,0.15 -1.01,0.3 -1.53,0.59zm-4.65 2.23c0.39,-0.3 0.77,-0.45 1.16,-0.59 -0.39,0.15 -0.77,0.29 -1.16,0.59zm-4.34 2.37c0.25,-0.15 0.5,-0.29 0.77,-0.44 -0.27,0.15 -0.52,0.29 -0.77,0.44zm-3.97 2.68l0.35 -0.3 -0.35 0.3zm33.65 -12.47c1.83,-0.15 3.66,-0.3 5.48,-0.3 -1.82,0 -3.65,0.15 -5.48,0.3zm-49.42 32.36c-0.22,0.59 -0.46,1.18 -0.64,1.93 0.18,-0.75 0.42,-1.34 0.64,-1.93zm1.5 -3.57c-0.18,0.29 -0.4,0.74 -0.56,1.04 0.16,-0.3 0.39,-0.75 0.56,-1.04zm-2.62 7.57c-0.15,0.89 -0.3,1.64 -0.39,2.38 0.08,-0.74 0.24,-1.49 0.39,-2.38zm1271.69 -70.07l-1210.41 0c-55.48,0 -72.61,34.89 -61.9,76.01 0,-0.45 0.09,-0.9 0.1,-1.49 -0.12,2.82 0.11,5.64 0.88,8.47l87.59 330.76c13.24,50.18 25.13,51.66 90.43,51.66l1012.05 -0.15c52.55,0 78.16,0.15 88.59,-50.33l68.22 -331.95c0.24,-1.19 0.36,-2.52 0.46,-3.71l0.03 0.15 3.3 -28.21c4.68,-40.38 -48.49,-51.22 -79.34,-51.22z"/>
   <path class="fil29" d="M3585.89 1167.92l0 0c-4.5,-21.08 -30.57,-46.02 -56.16,-46.02l-475.73 0 48.39 -33.4 407.46 0c29.52,0 79.47,9.95 79.61,46.17 0.02,1.63 -0.09,3.26 -0.27,5.05l-3.3 28.21z"/>
   <path class="fil30" d="M2237.54 1164.51c0,0 0,0 0,-0.15 0,0.15 0,0.15 0,0.15z"/>
   <path class="fil29" d="M2237.54 1164.51c-2.01,-7.72 -3.03,-15.15 -3.02,-22.27 0.08,-30.73 19.84,-53.74 64.92,-53.74l324.96 0c-0.84,0.59 -1.67,1.19 -2.49,1.77 -13.64,9.35 -25.89,20.05 -36.72,31.62l-291 0 0 0c-27.8,0 -56.86,19.3 -56.65,42.46 0,0.15 0,0.15 0,0.15l0 0zm677.07 -42.61l-3.1 0c-0.42,-0.45 -0.82,-0.89 -1.22,-1.34l-7.52 -14.4 -5.4 1.78c-7.93,-7.13 -16.26,-13.66 -24.97,-19.45l90.6 0c0,0 0,0 0,0l-48.38 33.4zm-80.48 0l-171.44 0c26.84,-15.14 56.33,-22.56 85.56,-22.56 29.94,0 59.62,7.72 85.88,22.56z"/>
   <path class="fil31" d="M2376.43 1529.42l-77.28 -384.21 267.28 -0.3c-52.44,74.23 -56.02,176.22 -1.48,255.2 43.23,62.8 112.84,96.35 183.62,96.35 6.27,0 12.5,-0.15 18.75,-0.74l8.02 13.95 25.34 -10.54c5.42,4.6 11.59,8.16 18.29,10.54l3.36 19.59 -445.9 0.15zm482.1 -0.15l2.65 -20.04c6.65,-2.52 12.76,-6.24 18.06,-10.83l25.46 9.35 17.07 -29.54 -22.12 -16.93c0.49,-3.12 0.74,-6.38 0.74,-9.65 0,-3.57 -0.32,-7.28 -0.92,-10.69l21.23 -17.67 -2.81 -4.89c17.05,-19.89 30.17,-42.46 39.12,-66.51l25.6 -8.16 -7.18 -39.64c8.23,-6.68 15.13,-14.69 20.49,-23.61l40.21 1.78 10.62 -49.43 -38.87 -13.95c-0.74,-4.61 -1.82,-9.21 -3.33,-13.81 -1.66,-5.19 -3.78,-10.24 -6.24,-14.84l21.95 -34.45 -12.42 -11.28 523.51 -0.59 -66.45 385.25 -606.38 0.15zm-110 -81.35c-55.37,0 -109.81,-26.28 -143.62,-75.27 33.78,48.99 88.2,75.27 143.55,75.27 10.16,0 20.36,-0.89 30.46,-2.67 0,0 0,0 -0.02,0 -10.07,1.78 -20.23,2.67 -30.37,2.67zm18.77 -14.99c-114.47,-1.64 -169.03,-86.85 -192.34,-142.08 2.76,28.06 12.25,55.67 29.12,80.46 -49.13,-72.45 -36.3,-168.95 26.85,-226.4l227.93 -0.29 3.02 16.78c-8.23,6.53 -15.13,14.55 -20.5,23.6l-40.2 -1.77 -10.64 49.29 38.89 14.1c0.74,4.61 1.83,9.21 3.33,13.81 1.67,5.2 3.76,10.09 6.24,14.7l-21.97 34.59 37.49 33.85 31.01 -26.28c9.41,3.87 19.49,6.09 29.81,6.54 -8.33,27.76 -23.58,53.59 -45.22,74.68 -3.19,-1.93 -6.56,-3.57 -10.09,-4.75l-4.52 -26.58 -34.09 0 -3.59 27.02c-6.67,2.52 -12.77,6.24 -18.05,10.83l-25.48 -9.5 -17.04 29.54 10.08 7.87zm-56.9 -53.59c0.74,1.19 1.56,2.23 2.51,3.12 1.04,1.19 2.15,2.23 3.33,3.12l-1.48 11.43 13.54 4.16 4.8 -10.39c2.91,-0.15 5.79,-0.89 8.55,-1.93l8.86 6.68 10.38 -9.65 -6.51 -9.2c1.28,-2.68 2.1,-5.49 2.39,-8.32l10.46 -4.45 -3.18 -13.81 -11.55 1.04c-0.73,-1.04 -1.54,-2.08 -2.48,-3.12 -1.04,-1.04 -2.15,-2.08 -3.34,-2.97l1.5 -11.43 -13.55 -4.16 -4.78 10.39c-2.91,0.15 -5.82,0.74 -8.53,1.93l-8.87 -6.68 -10.41 9.5 6.54 9.35c-1.3,2.68 -2.12,5.49 -2.42,8.32l-10.42 4.45 3.16 13.81 11.54 -1.19zm-40.07 -73.78c1.53,1.34 3.17,2.37 4.92,3.41 1.99,1.04 4.03,1.93 6.09,2.67l3.06 16.78 21.01 -0.29 2.04 -16.78c4.05,-1.48 7.84,-3.86 11.17,-6.68l15.63 5.49 10.22 -18.26 -13.39 -10.09c0.63,-4.31 0.46,-8.76 -0.42,-12.92l12.76 -10.84 -10.77 -18.11 -15.78 6.68c-1.53,-1.19 -3.19,-2.22 -4.93,-3.12 -1.99,-1.19 -4.04,-2.08 -6.1,-2.82l-3.04 -16.78 -21.02 0.29 -2.05 16.78c-4.02,1.64 -7.8,3.86 -11.14,6.68l-15.6 -5.49 -10.3 18.26 13.44 10.09c-0.63,4.31 -0.46,8.77 0.42,12.92l-12.76 10.84 10.75 18.11 15.8 -6.83zm-65.42 67.1c-0.15,-0.29 -0.28,-0.44 -0.39,-0.59 0.11,0.15 0.24,0.45 0.39,0.59zm-0.47 -0.74c-0.11,-0.15 -0.22,-0.29 -0.32,-0.45 0.1,0.15 0.22,0.3 0.32,0.45z"/>
   <path class="fil32" d="M2359.69 1565.19l1111.24 0c18.4,0 33.48,14.99 33.48,33.41l0 612.83c0,18.41 -15.07,33.41 -33.48,33.41l-1111.24 0c-18.38,0 -33.48,-14.99 -33.48,-33.41l0 -612.83c0,-18.41 15.09,-33.41 33.48,-33.41z"/>
   <path class="fil33" d="M3470.93 2244.83l-801.9 0 246.46 -236.49 530.5 0 0 -385.84 -128.43 0 59.8 -57.31 93.57 0c18.4,0 33.48,14.99 33.48,33.41l0 612.83c0,18.41 -15.07,33.41 -33.48,33.41z"/>
   <polygon class="fil34" points="2757.88,2202.37 3072.64,2202.37 3072.64,2037.62 2757.88,2037.62 "/>
   <polygon class="fil35" points="2915.49,2008.34 2384.63,2008.34 2384.63,1622.5 3317.55,1622.5 "/>
   <polygon class="fil36" points="3445.99,2008.34 2915.49,2008.34 3317.55,1622.5 3445.99,1622.5 "/>
   <path class="fil37" d="M2407.61 1645.36l49.26 0c2.92,0 5.24,3.12 5.24,6.83l0 53.15c0,3.71 -2.32,6.83 -5.24,6.83l-49.26 0c-2.92,0 -5.34,-3.12 -5.34,-6.83l0 -53.15c0,-3.71 2.42,-6.83 5.34,-6.83z"/>
   <path class="fil37" d="M2487.56 1645.36l49.24 0c2.91,0 5.35,3.12 5.35,6.83l0 53.15c0,3.71 -2.44,6.83 -5.35,6.83l-49.24 0c-2.91,0 -5.33,-3.12 -5.33,-6.83l0 -53.15c0,-3.71 2.42,-6.83 5.33,-6.83z"/>
   <path class="fil37" d="M2567.57 1645.36l49.16 0c2.94,0 5.34,3.12 5.34,6.83l0 53.15c0,3.71 -2.4,6.83 -5.34,6.83l-49.16 0c-2.92,0 -5.34,-3.12 -5.34,-6.83l0 -53.15c0,-3.71 2.42,-6.83 5.34,-6.83z"/>
   <path class="fil37" d="M2647.52 1645.36l49.16 0c3.02,0 5.32,3.12 5.32,6.83l0 53.15c0,3.71 -2.3,6.83 -5.32,6.83l-49.16 0c-2.91,0 -5.33,-3.12 -5.33,-6.83l0 -53.15c0,-3.71 2.42,-6.83 5.33,-6.83z"/>
   <path class="fil37" d="M2727.45 1645.36l49.27 0c2.91,0 5.31,3.12 5.31,6.83l0 53.15c0,3.71 -2.4,6.83 -5.31,6.83l-49.27 0c-2.91,0 -5.33,-3.12 -5.33,-6.83l0 -53.15c0,-3.71 2.42,-6.83 5.33,-6.83z"/>
   <path class="fil37" d="M2807.48 1645.36l49.17 0c2.91,0 5.34,3.12 5.34,6.83l0 53.15c0,3.71 -2.43,6.83 -5.34,6.83l-49.17 0c-2.91,0 -5.33,-3.12 -5.33,-6.83l0 -53.15c0,-3.71 2.42,-6.83 5.33,-6.83z"/>
   <path class="fil37" d="M2887.42 1645.36l49.16 0c3.02,0 5.35,3.12 5.35,6.83l0 53.15c0,3.71 -2.33,6.83 -5.35,6.83l-49.16 0c-2.91,0 -5.33,-3.12 -5.33,-6.83l0 -53.15c0,-3.71 2.42,-6.83 5.33,-6.83z"/>
   <path class="fil37" d="M2967.34 1645.36l49.28 0c2.91,0 5.34,3.12 5.34,6.83l0 53.15c0,3.71 -2.43,6.83 -5.34,6.83l-49.28 0c-2.91,0 -5.29,-3.12 -5.29,-6.83l0 -53.15c0,-3.71 2.38,-6.83 5.29,-6.83z"/>
   <path class="fil37" d="M3047.38 1645.36l49.16 0c2.94,0 5.35,3.12 5.35,6.83l0 53.15c0,3.71 -2.41,6.83 -5.35,6.83l-49.16 0c-3.02,0 -5.33,-3.12 -5.33,-6.83l0 -53.15c0,-3.71 2.32,-6.83 5.33,-6.83z"/>
   <path class="fil37" d="M3127.33 1645.36l49.17 0c3,0 5.33,3.12 5.33,6.83l0 53.15c0,3.71 -2.33,6.83 -5.33,6.83l-49.17 0c-2.94,0 -5.32,-3.12 -5.32,-6.83l0 -53.15c0,-3.71 2.38,-6.83 5.32,-6.83z"/>
   <path class="fil37" d="M3207.26 1645.36l49.27 0c2.91,0 5.32,3.12 5.32,6.83l0 53.15c0,3.71 -2.41,6.83 -5.32,6.83l-49.27 0c-2.94,0 -5.33,-3.12 -5.33,-6.83l0 -53.15c0,-3.71 2.39,-6.83 5.33,-6.83z"/>
   <path class="fil37" d="M2527.65 1737.99l49.17 0c2.91,0 5.32,3.12 5.32,6.98l0 53c0,3.71 -2.42,6.83 -5.32,6.83l-49.17 0c-2.91,0 -5.33,-3.12 -5.33,-6.83l0 -53c0,-3.86 2.42,-6.98 5.33,-6.98z"/>
   <path class="fil37" d="M2607.59 1737.99l49.27 0c2.91,0 5.34,3.12 5.34,6.98l0 53c0,3.71 -2.43,6.83 -5.34,6.83l-49.27 0c-2.91,0 -5.32,-3.12 -5.32,-6.83l0 -53c0,-3.86 2.41,-6.98 5.32,-6.98z"/>
   <path class="fil37" d="M2687.54 1737.99l49.28 0c2.88,0 5.29,3.12 5.29,6.98l0 53c0,3.71 -2.42,6.83 -5.29,6.83l-49.28 0c-2.91,0 -5.22,-3.12 -5.22,-6.83l0 -53c0,-3.86 2.32,-6.98 5.22,-6.98z"/>
   <path class="fil37" d="M2767.55 1737.99l49.2 0c2.91,0 5.3,3.12 5.3,6.98l0 53c0,3.71 -2.39,6.83 -5.3,6.83l-49.2 0c-2.91,0 -5.32,-3.12 -5.32,-6.83l0 -53c0,-3.86 2.41,-6.98 5.32,-6.98z"/>
   <path class="fil37" d="M2847.5 1737.99l49.28 0c2.91,0 5.22,3.12 5.22,6.98l0 53c0,3.71 -2.32,6.83 -5.22,6.83l-49.28 0c-2.91,0 -5.34,-3.12 -5.34,-6.83l0 -53c0,-3.86 2.43,-6.98 5.34,-6.98z"/>
   <path class="fil37" d="M2927.44 1737.99l49.27 0c2.91,0 5.33,3.12 5.33,6.98l0 53c0,3.71 -2.42,6.83 -5.33,6.83l-49.27 0c-2.91,0 -5.34,-3.12 -5.34,-6.83l0 -53c0,-3.86 2.43,-6.98 5.34,-6.98z"/>
   <path class="fil37" d="M3007.47 1737.99l49.17 0c2.91,0 5.33,3.12 5.33,6.98l0 53c0,3.71 -2.42,6.83 -5.33,6.83l-49.17 0c-2.91,0 -5.32,-3.12 -5.32,-6.83l0 -53c0,-3.86 2.42,-6.98 5.32,-6.98z"/>
   <path class="fil37" d="M3087.4 1737.99l49.27 0c2.91,0 5.23,3.12 5.23,6.98l0 53c0,3.71 -2.32,6.83 -5.23,6.83l-49.27 0c-2.91,0 -5.31,-3.12 -5.31,-6.83l0 -53c0,-3.86 2.4,-6.98 5.31,-6.98z"/>
   <path class="fil37" d="M3167.33 1737.99l49.27 0c2.91,0 5.33,3.12 5.33,6.98l0 53c0,3.71 -2.42,6.83 -5.33,6.83l-49.27 0c-2.91,0 -5.35,-3.12 -5.35,-6.83l0 -53c0,-3.86 2.44,-6.98 5.35,-6.98z"/>
   <path class="fil37" d="M3247.36 1737.99l49.19 0c2.92,0 5.32,3.12 5.32,6.98l0 53c0,3.71 -2.39,6.83 -5.32,6.83l-49.19 0c-2.91,0 -5.32,-3.12 -5.32,-6.83l0 -53c0,-3.86 2.42,-6.98 5.32,-6.98z"/>
   <path class="fil37" d="M3287.3 1645.36l49.17 0c2.91,0 5.35,3.12 5.35,6.83l0 53.15c0,3.71 -2.44,6.83 -5.35,6.83l-49.17 0c-3.01,0 -5.32,-3.12 -5.32,-6.83l0 -53.15c0,-3.71 2.32,-6.83 5.32,-6.83z"/>
   <path class="fil37" d="M3367.23 1645.36l49.17 0c2.91,0 5.31,3.12 5.31,6.83l0 53.15c0,3.71 -2.4,6.83 -5.31,6.83l-49.17 0c-2.94,0 -5.33,-3.12 -5.33,-6.83l0 -53.15c0,-3.71 2.39,-6.83 5.33,-6.83z"/>
   <path class="fil37" d="M3328.63 1737.99l87.77 0c2.91,0 5.31,3.12 5.31,6.98l0 53c0,3.71 -2.4,6.83 -5.31,6.83l-87.77 0c-2.94,0 -5.36,-3.12 -5.36,-6.83l0 -53c0,-3.86 2.42,-6.98 5.36,-6.98z"/>
   <path class="fil37" d="M2408.41 1737.99l91.09 0c2.92,0 5.32,3.12 5.32,6.98l0 53c0,3.71 -2.4,6.83 -5.32,6.83l-91.09 0c-3.02,0 -5.33,-3.12 -5.33,-6.83l0 -53c0,-3.86 2.32,-6.98 5.33,-6.98z"/>
   <path class="fil37" d="M2408.41 1830.64l108.79 0c2.91,0 5.32,3.12 5.32,6.98l0 53c0,3.71 -2.42,6.83 -5.32,6.83l-108.79 0c-3.02,0 -5.33,-3.12 -5.33,-6.83l0 -53c0,-3.86 2.32,-6.98 5.33,-6.98z"/>
   <path class="fil37" d="M2408.41 1923.42l49.06 0c2.94,0 5.33,3.12 5.33,6.83l0 53c0,3.87 -2.39,6.98 -5.33,6.98l-49.06 0c-3.02,0 -5.33,-3.12 -5.33,-6.98l0 -53c0,-3.71 2.32,-6.83 5.33,-6.83z"/>
   <path class="fil37" d="M2488.24 1923.42l49.08 0c2.92,0 5.33,3.12 5.33,6.83l0 53c0,3.87 -2.41,6.98 -5.33,6.98l-49.08 0c-2.91,0 -5.31,-3.12 -5.31,-6.98l0 -53c0,-3.71 2.4,-6.83 5.31,-6.83z"/>
   <path class="fil37" d="M2568.08 1923.42l49.06 0c3.01,0 5.32,3.12 5.32,6.83l0 53c0,3.87 -2.32,6.98 -5.32,6.98l-49.06 0c-2.92,0 -5.33,-3.12 -5.33,-6.98l0 -53c0,-3.71 2.42,-6.83 5.33,-6.83z"/>
   <path class="fil37" d="M2647.94 1923.42l511.26 0c3.01,0 5.32,3.12 5.32,6.83l0 53c0,3.87 -2.32,6.98 -5.32,6.98l-511.26 0c-2.94,0 -5.35,-3.12 -5.35,-6.98l0 -53c0,-3.71 2.41,-6.83 5.35,-6.83z"/>
   <path class="fil37" d="M2546.76 1831.67l49.17 0c2.92,0 5.32,3.12 5.32,6.83l0 53c0,3.87 -2.4,6.83 -5.32,6.83l-49.17 0c-2.91,0 -5.33,-2.96 -5.33,-6.83l0 -53c0,-3.71 2.42,-6.83 5.33,-6.83z"/>
   <path class="fil37" d="M2626.69 1831.67l49.29 0c2.91,0 5.32,3.12 5.32,6.83l0 53c0,3.87 -2.42,6.83 -5.32,6.83l-49.29 0c-2.91,0 -5.33,-2.96 -5.33,-6.83l0 -53c0,-3.71 2.42,-6.83 5.33,-6.83z"/>
   <path class="fil37" d="M2706.65 1831.67l49.25 0c2.92,0 5.34,3.12 5.34,6.83l0 53c0,3.87 -2.42,6.83 -5.34,6.83l-49.25 0c-2.94,0 -5.26,-2.96 -5.26,-6.83l0 -53c0,-3.71 2.32,-6.83 5.26,-6.83z"/>
   <path class="fil37" d="M2786.66 1831.67l49.2 0c2.89,0 5.32,3.12 5.32,6.83l0 53c0,3.87 -2.42,6.83 -5.32,6.83l-49.2 0c-2.91,0 -5.3,-2.96 -5.3,-6.83l0 -53c0,-3.71 2.39,-6.83 5.3,-6.83z"/>
   <path class="fil37" d="M2866.59 1831.67l49.27 0c2.92,0 5.22,3.12 5.22,6.83l0 53c0,3.87 -2.3,6.83 -5.22,6.83l-49.27 0c-2.89,0 -5.3,-2.96 -5.3,-6.83l0 -53c0,-3.71 2.42,-6.83 5.3,-6.83z"/>
   <path class="fil37" d="M2946.54 1831.67l49.24 0c2.92,0 5.38,3.12 5.38,6.83l0 53c0,3.87 -2.45,6.83 -5.38,6.83l-49.24 0c-2.91,0 -5.32,-2.96 -5.32,-6.83l0 -53c0,-3.71 2.42,-6.83 5.32,-6.83z"/>
   <path class="fil37" d="M3026.57 1831.67l49.17 0c2.92,0 5.32,3.12 5.32,6.83l0 53c0,3.87 -2.39,6.83 -5.32,6.83l-49.17 0c-2.94,0 -5.32,-2.96 -5.32,-6.83l0 -53c0,-3.71 2.38,-6.83 5.32,-6.83z"/>
   <path class="fil37" d="M3106.51 1831.67l49.27 0c2.92,0 5.22,3.12 5.22,6.83l0 53c0,3.87 -2.3,6.83 -5.22,6.83l-49.27 0c-2.91,0 -5.32,-2.96 -5.32,-6.83l0 -53c0,-3.71 2.42,-6.83 5.32,-6.83z"/>
   <path class="fil37" d="M3186.44 1831.67l91.61 0c2.91,0 5.32,3.12 5.32,6.83l0 53c0,3.87 -2.42,6.83 -5.32,6.83l-91.61 0c-2.91,0 -5.32,-2.96 -5.32,-6.83l0 -53c0,-3.71 2.41,-6.83 5.32,-6.83z"/>
   <path class="fil37" d="M3306.98 1830.64l108.89 0c2.91,0 5.33,3.12 5.33,6.98l0 53c0,3.71 -2.42,6.83 -5.33,6.83l-108.89 0c-2.91,0 -5.31,-3.12 -5.31,-6.83l0 -53c0,-3.86 2.4,-6.98 5.31,-6.98z"/>
   <path class="fil37" d="M3316.75 1923.42l41.04 0c1,0 1.9,1.04 1.9,2.23l0 18.41c0,1.34 -0.9,2.37 -1.9,2.37l-41.04 0c-1.01,0 -1.8,-1.03 -1.8,-2.37l0 -18.41c0,-1.19 0.79,-2.23 1.8,-2.23z"/>
   <path class="fil37" d="M3316.75 1963.36l41.04 0c1,0 1.9,1.03 1.9,2.37l0 18.27c0,1.19 -0.9,2.22 -1.9,2.22l-41.04 0c-1.01,0 -1.8,-1.03 -1.8,-2.22l0 -18.27c0,-1.34 0.79,-2.37 1.8,-2.37z"/>
   <path class="fil37" d="M3255.91 1963.36l41.02 0c1.01,0 1.91,1.03 1.91,2.37l0 18.27c0,1.19 -0.9,2.22 -1.91,2.22l-41.02 0c-1,0 -1.79,-1.03 -1.79,-2.22l0 -18.27c0,-1.34 0.79,-2.37 1.79,-2.37z"/>
   <path class="fil37" d="M3377.46 1963.36l41.03 0c1.01,0 1.83,1.03 1.83,2.37l0 18.27c0,1.19 -0.82,2.22 -1.83,2.22l-41.03 0c-0.98,0 -1.91,-1.03 -1.91,-2.22l0 -18.27c0,-1.34 0.93,-2.37 1.91,-2.37z"/>
   <path class="fil37" d="M3184.54 1923.42l49.27 0c2.91,0 5.32,3.12 5.32,6.83l0 53c0,3.87 -2.42,6.98 -5.32,6.98l-49.27 0c-2.91,0 -5.32,-3.12 -5.32,-6.98l0 -53c0,-3.71 2.41,-6.83 5.32,-6.83z"/>
   <path class="fil38" d="M3202.33 901.59c22.08,-15.14 52.34,-9.65 67.55,12.47 15.22,22.12 9.65,52.26 -12.43,67.55l-218.48 150.69c-22.08,15.14 -52.34,9.65 -67.55,-12.47 -15.21,-21.97 -9.66,-52.26 12.42,-67.55l218.5 -150.69z"/>
   <path class="fil39" d="M3028 1122.04c-13.06,0 -25.95,-6.24 -33.92,-17.81 -12.93,-18.71 -8.23,-44.39 10.51,-57.31l185.37 -127.82c7.12,-4.9 15.27,-7.28 23.35,-7.28 13.06,0 25.95,6.24 33.92,17.82 12.93,18.71 8.23,44.39 -10.51,57.31l-185.37 127.82c-7.12,4.9 -15.27,7.27 -23.35,7.27z"/>
   <path class="fil40" d="M3001.73 1138.97l-7.78 -7.13c0.86,-11.43 -0.66,-37.26 -30.73,-43.5l-0.19 0.15c0.23,-2.97 0.76,-5.94 1.54,-8.91 9.14,2.38 19.49,10.1 27.43,21.68 9.23,13.37 12.63,28.06 9.72,37.71z"/>
   <path class="fil41" d="M2891.88 1174.75c54.6,79.28 34.68,187.8 -44.54,242.43 -79.24,54.63 -187.78,34.59 -242.42,-44.54 -54.64,-79.28 -34.72,-187.8 44.54,-242.43 79.23,-54.64 187.75,-34.74 242.42,44.53zm-269.97 -84.48c-101.34,69.78 -126.84,208.59 -56.96,309.83 69.86,101.4 208.64,126.93 309.95,57.01 93.84,-64.73 122.55,-188.55 70.77,-286.97l47.57 -32.81c0,0 8.91,-40.98 -30.02,-48.99l-50.51 34.89c-73.92,-80.9 -198.06,-96.94 -290.8,-32.96z"/>
   <path class="fil42" d="M2748.47 1447.91c-55.35,0 -109.77,-26.28 -143.55,-75.27l0 0c-0.15,-0.15 -0.28,-0.44 -0.39,-0.59 -0.02,0 -0.05,0 -0.08,-0.15 -0.11,-0.15 -0.22,-0.29 -0.32,-0.45 0,0 -0.03,0 -0.05,-0.15 -16.87,-24.79 -26.35,-52.41 -29.12,-80.46 23.31,55.23 77.87,140.44 192.34,142.08l12.02 9.21c-0.16,1.03 -0.29,2.08 -0.4,3.12 -10.09,1.78 -20.3,2.67 -30.46,2.67z"/>
   <path class="fil43" d="M2604.92 1372.64l0 0zm-0.39 -0.59c-0.02,0 -0.05,0 -0.08,-0.15 0.03,0.15 0.06,0.15 0.08,0.15zm-0.41 -0.59c0,0 -0.03,0 -0.05,-0.15 0.02,0.15 0.05,0.15 0.05,0.15z"/>
   <path class="fil44" d="M2860.01 1393.72c6.73,2.38 12.87,5.94 18.29,10.54l25.34 -10.54 17.08 29.54 -21.23 17.67c0.59,3.41 0.92,7.12 0.92,10.69 0,3.26 -0.25,6.53 -0.74,9.65l22.12 16.93 -17.07 29.54 -25.46 -9.35c-5.3,4.6 -11.41,8.31 -18.06,10.83l-3.59 27.02 -34.1 0 -4.53 -26.58c-6.7,-2.38 -12.87,-5.94 -18.29,-10.54l-25.34 10.54 -17.05 -29.54 21.23 -17.67c-0.62,-3.41 -0.95,-7.12 -0.95,-10.83 0,-3.26 0.27,-6.38 0.76,-9.5l-22.1 -17.08 17.04 -29.54 25.48 9.5c5.28,-4.6 11.38,-8.31 18.05,-10.83l3.59 -27.02 34.09 0 4.52 26.58z"/>
   <path class="fil45" d="M2839.48 1496.01c-24.39,0 -44.32,-19.89 -44.32,-44.39 0,-24.35 19.92,-44.24 44.32,-44.24 24.42,0 44.34,19.89 44.34,44.24 0,24.49 -19.92,44.39 -44.34,44.39zm0.03 -73.78c-16.2,0 -29.42,13.21 -29.42,29.39 0,16.18 13.22,29.39 29.42,29.39 16.19,0 29.39,-13.21 29.39,-29.39 0,-16.18 -13.2,-29.39 -29.39,-29.39z"/>
   <path class="fil46" d="M2839.51 1481.01c-16.2,0 -29.42,-13.21 -29.42,-29.39 0,-16.18 13.22,-29.39 29.42,-29.39 16.19,0 29.39,13.21 29.39,29.39 0,16.18 -13.2,29.39 -29.39,29.39z"/>
   <path class="fil47" d="M2921.2 1141.5c10.59,0.44 20.94,2.67 30.57,6.53l31.04 -26.28 37.46 33.99 -21.95 34.45c2.45,4.6 4.58,9.65 6.24,14.84 1.5,4.61 2.59,9.21 3.33,13.81l38.87 13.95 -10.62 49.43 -40.21 -1.78c-5.36,8.91 -12.26,16.93 -20.49,23.61l7.18 39.64 -48.1 15.44 -18.44 -35.34c-10.56,-0.3 -20.91,-2.52 -30.57,-6.54l-31.01 26.28 -37.49 -33.85 21.97 -34.59c-2.48,-4.61 -4.57,-9.5 -6.24,-14.7 -1.5,-4.6 -2.59,-9.2 -3.33,-13.81l-38.89 -14.1 10.64 -49.29 40.2 1.77c5.37,-9.05 12.28,-17.07 20.5,-23.6l-7.18 -39.64 48.07 -15.59 18.44 35.34z"/>
   <path class="fil48" d="M2918.65 1304.21c-39.37,0 -71.47,-32.22 -71.47,-71.56 0,-39.34 32.09,-71.41 71.47,-71.41 39.36,0 71.48,32.07 71.48,71.41 0,39.34 -32.13,71.56 -71.48,71.56zm-0.03 -115.06c-4.41,0 -8.91,0.59 -13.31,2.08 -22.85,7.42 -35.47,31.92 -28.12,54.78 5.94,18.41 23.12,30.29 41.51,30.29 4.41,0 8.91,-0.74 13.32,-2.23 22.83,-7.27 35.47,-31.92 28.11,-54.78 -5.92,-18.4 -23.11,-30.13 -41.51,-30.13z"/>
   <path class="fil49" d="M2918.69 1276.29c-18.39,0 -35.57,-11.88 -41.51,-30.29 -7.35,-22.86 5.27,-47.36 28.12,-54.78 4.41,-1.48 8.91,-2.08 13.31,-2.08 18.4,0 35.59,11.73 41.51,30.13 7.35,22.87 -5.28,47.51 -28.11,54.78 -4.41,1.49 -8.91,2.23 -13.32,2.23z"/>
   <path class="fil50" d="M2721.3 1341.76c2.72,-1.19 5.63,-1.78 8.53,-1.93l4.78 -10.39 13.55 4.16 -1.5 11.43c1.19,0.89 2.3,1.93 3.34,2.97 0.93,1.03 1.75,2.08 2.48,3.12l11.55 -1.04 3.18 13.81 -10.46 4.45c-0.29,2.82 -1.11,5.64 -2.39,8.32l6.51 9.2 -10.38 9.65 -8.86 -6.68c-2.76,1.04 -5.64,1.78 -8.55,1.93l-4.8 10.39 -13.54 -4.16 1.48 -11.43c-1.17,-0.89 -2.28,-1.93 -3.33,-3.12 -0.95,-0.89 -1.77,-1.93 -2.51,-3.12l-11.54 1.19 -3.16 -13.81 10.42 -4.45c0.3,-2.82 1.13,-5.64 2.42,-8.32l-6.54 -9.35 10.41 -9.5 8.87 6.68z"/>
   <path class="fil51" d="M2731.46 1383.63c-4.96,0 -9.89,-1.93 -13.51,-5.79 -6.91,-7.42 -6.45,-19.15 0.98,-26.13 3.55,-3.27 8.03,-4.9 12.53,-4.9 4.95,0 9.87,2.08 13.5,5.93 6.91,7.42 6.48,19.15 -0.95,25.98 -3.53,3.42 -8.06,4.9 -12.55,4.9zm0 -30.58c-2.97,0 -5.97,1.04 -8.31,3.26 -4.92,4.6 -5.22,12.32 -0.66,17.22 2.41,2.67 5.7,4.01 8.97,4.01 3,0 5.95,-1.19 8.33,-3.26 4.93,-4.6 5.2,-12.32 0.63,-17.37 -2.41,-2.52 -5.67,-3.86 -8.95,-3.86z"/>
   <path class="fil52" d="M2731.46 1377.54c-3.26,0 -6.56,-1.34 -8.97,-4.01 -4.57,-4.9 -4.26,-12.62 0.66,-17.22 2.35,-2.22 5.34,-3.26 8.31,-3.26 3.28,0 6.54,1.34 8.95,3.86 4.58,5.05 4.31,12.77 -0.63,17.37 -2.38,2.08 -5.32,3.26 -8.33,3.26z"/>
   <path class="fil53" d="M2668.6 1247.64c3.34,-2.82 7.12,-5.05 11.14,-6.68l2.05 -16.78 21.02 -0.29 3.04 16.78c2.07,0.74 4.11,1.63 6.1,2.82 1.74,0.9 3.4,1.93 4.93,3.12l15.78 -6.68 10.77 18.11 -12.76 10.84c0.88,4.16 1.04,8.61 0.42,12.92l13.39 10.09 -10.22 18.26 -15.63 -5.49c-3.33,2.82 -7.11,5.2 -11.17,6.68l-2.04 16.78 -21.01 0.29 -3.06 -16.78c-2.06,-0.74 -4.1,-1.63 -6.09,-2.67 -1.75,-1.04 -3.4,-2.08 -4.92,-3.41l-15.8 6.83 -10.75 -18.11 12.76 -10.84c-0.89,-4.15 -1.05,-8.61 -0.42,-12.92l-13.44 -10.09 10.3 -18.26 15.6 5.49z"/>
   <path class="fil54" d="M2693.64 1305.83c-8.02,0 -15.99,-3.12 -21.81,-9.5 -11.14,-12.02 -10.43,-30.88 1.57,-42.01 5.69,-5.2 12.96,-7.87 20.2,-7.87 7.97,0 15.92,3.12 21.78,9.5 11.14,12.02 10.43,30.88 -1.56,42.02 -5.71,5.19 -12.96,7.86 -20.19,7.86zm0.02 -47.81c-6.37,0 -12.52,3.42 -15.84,9.21 -4.87,8.76 -1.77,19.89 6.95,24.65 2.77,1.63 5.79,2.38 8.79,2.38 6.37,0 12.56,-3.42 15.84,-9.21 4.92,-8.76 1.78,-19.89 -6.91,-24.65 -2.79,-1.63 -5.82,-2.38 -8.82,-2.38z"/>
   <path class="fil55" d="M2693.56 1294.26c-3,0 -6.02,-0.75 -8.79,-2.38 -8.72,-4.75 -11.82,-15.89 -6.95,-24.65 3.33,-5.79 9.48,-9.21 15.84,-9.21 3,0 6.03,0.75 8.82,2.38 8.7,4.75 11.83,15.89 6.91,24.65 -3.28,5.79 -9.47,9.21 -15.84,9.21z"/>
   <path class="fil56" d="M858.93 2136.76c-65.32,-57.61 -35.62,-192.26 -35.62,-192.26l-194.71 0c0,0 29.7,134.65 -35.63,192.26 -65.34,57.75 -141.65,57.75 -141.65,57.75l0 32.36 549.26 0 0 -32.36c0,0 -76.3,0 -141.64,-57.75z"/>
   <polygon class="fil57" points="1000.58,2226.87 451.32,2226.87 451.32,2194.5 1000.58,2194.5 "/>
   <path class="fil58" d="M1451.91 1857.95c0,47.8 -38.75,86.54 -86.54,86.54l-1278.85 0c-47.79,0 -86.53,-38.75 -86.53,-86.54l0 -706.67c0,-47.8 38.74,-86.54 86.53,-86.54l1278.85 0c47.79,0 86.54,38.75 86.54,86.54l0 706.67z"/>
   <path class="fil59" d="M-0 1151.29l0 706.67c0,16.77 4.85,32.36 13.13,45.72l1425.65 0c8.28,-13.37 13.13,-28.95 13.13,-45.72l0 -706.67c0,-22.42 -8.6,-42.75 -22.56,-58.19l-1406.8 0c-13.98,15.44 -22.55,35.78 -22.55,58.19z"/>
   <polygon class="fil60" points="62.49,1873.54 1389.42,1873.54 1389.42,1122.34 62.49,1122.34 "/>
   <polygon class="fil61" points="194.1,1873.54 335.76,1873.54 335.76,1603.1 194.1,1603.1 "/>
   <polygon class="fil62" points="434.49,1873.54 576.15,1873.54 576.15,1521.54 434.49,1521.54 "/>
   <polygon class="fil63" points="676.98,1873.54 818.63,1873.54 818.63,1349.84 676.98,1349.84 "/>
   <polygon class="fil64" points="930.24,1873.54 1071.89,1873.54 1071.89,1259.7 930.24,1259.7 "/>
   <polygon class="fil65" points="1171.84,1860.92 1313.48,1860.92 1313.48,1165.01 1171.84,1165.01 "/>
   <polygon class="fil20" points="156.92,1711.72 143.85,1694.2 555.71,1385.41 997.1,1339.24 1307.94,1155.59 1319.01,1174.45 1004.08,1360.47 563.95,1406.34 "/>
   <path class="fil66" d="M185.8 1702.96c0,19.59 -15.86,35.34 -35.41,35.34 -19.55,0 -35.42,-15.74 -35.42,-35.34 0,-19.59 15.87,-35.48 35.42,-35.48 19.55,0 35.41,15.89 35.41,35.48z"/>
   <path class="fil66" d="M595.24 1395.8c0,19.6 -15.86,35.48 -35.42,35.48 -19.55,0 -35.41,-15.88 -35.41,-35.48 0,-19.45 15.86,-35.33 35.41,-35.33 19.56,0 35.42,15.88 35.42,35.33z"/>
   <path class="fil66" d="M1036 1349.93c0,19.45 -15.86,35.34 -35.41,35.34 -19.55,0 -35.41,-15.89 -35.41,-35.34 0,-19.6 15.86,-35.48 35.41,-35.48 19.55,0 35.41,15.88 35.41,35.48z"/>
   <path class="fil66" d="M1348.87 1165.09c0,19.45 -15.84,35.34 -35.39,35.34 -19.55,0 -35.41,-15.88 -35.41,-35.34 0,-19.59 15.86,-35.47 35.41,-35.47 19.55,0 35.39,15.88 35.39,35.47z"/>
   <polygon class="fil67" points="1523.2,2110.92 1542.95,1936.33 1971.82,1848.6 1964.33,1984.43 1982.3,2098 1920.27,2156.2 1784.21,2206.52 1591.69,2162.14 "/>
   <path class="fil68" d="M1465.81 2098l66.82 -70.36c0,0 66.47,164.05 229.37,154.24 162.9,-9.95 210.32,-147.12 210.32,-147.12l85.87 63.24 6.2 159.15c0,0 -329.5,85.06 -381.34,72.89 -51.84,-12.47 -234.52,-98.88 -234.52,-98.88l17.29 -133.17z"/>
   <path class="fil69" d="M2058.18 2098c-59.23,155.44 -296.18,170.29 -296.18,170.29 0,0 -236.95,-14.85 -296.19,-170.29 0,0 -547.96,133.17 -592.39,659.01 0,0 222.15,436.91 888.58,481.3 666.42,-44.39 888.58,-481.3 888.58,-481.3 -44.43,-525.84 -592.39,-659.01 -592.39,-659.01z"/>
   <path class="fil70" d="M2165.56 1168.66c-48.15,-173.99 -403.56,-229.52 -403.56,-229.52 0,0 -355.42,55.52 -403.57,229.52 -48.11,173.99 -11.09,373.97 40.74,529.4 51.83,155.59 155.5,347.98 362.83,422.07 207.34,-74.08 311,-266.48 362.82,-422.07 51.84,-155.43 88.85,-355.41 40.74,-529.4z"/>
   <path class="fil71" d="M2123.14 1703.11l0 0 0 0zm0.55 -1.63c0.03,0 0.05,-0.15 0.08,-0.15 -0.03,0 -0.05,0.15 -0.08,0.15zm0.29 -0.9c0.03,0 0.05,0 0.08,-0.15 -0.02,0.15 -0.05,0.15 -0.08,0.15zm0.28 -0.74c0.08,-0.15 0.14,-0.45 0.21,-0.59 -0.07,0.15 -0.13,0.45 -0.21,0.59zm0.29 -0.89c0.1,-0.3 0.21,-0.59 0.29,-0.9 34.93,-104.81 63.14,-229.66 63.1,-353.32 0.04,123.66 -28.17,248.51 -63.1,353.32 -0.08,0.3 -0.19,0.59 -0.29,0.9zm40.85 -531.04c-0.03,0 -0.04,0 -0.05,-0.15 0.02,0.15 0.02,0.15 0.05,0.15zm-0.22 -0.74c-0.01,0 -0.01,0 -0.02,0 0.02,0 0.02,0 0.02,0zm-0.2 -0.74c-0.03,0 -0.05,-0.15 -0.08,-0.15 0.03,0 0.05,0.15 0.08,0.15zm-0.21 -0.59c-0.03,-0.15 -0.05,-0.15 -0.06,-0.3 0.02,0.15 0.03,0.15 0.06,0.3zm-0.24 -0.9c-0.03,0 -0.06,-0.15 -0.08,-0.15 0.02,0 0.05,0.15 0.08,0.15zm-0.22 -0.59c-0.02,-0.15 -0.05,-0.15 -0.06,-0.29 0.02,0.15 0.05,0.15 0.06,0.29zm-0.25 -0.89c-0.02,0 -0.05,-0.15 -0.07,-0.15 0.02,0 0.05,0.15 0.07,0.15zm-0.21 -0.59c-0.02,-0.15 -0.04,-0.15 -0.07,-0.3 0.03,0.15 0.05,0.15 0.07,0.3zm-0.26 -0.9c-0.03,0 -0.05,-0.15 -0.09,-0.29 0.03,0.15 0.06,0.29 0.09,0.29zm-0.21 -0.59c-0.03,-0.15 -0.06,-0.15 -0.09,-0.3 0.03,0.15 0.06,0.15 0.09,0.3zm-0.29 -0.9c-0.03,0 -0.06,-0.15 -0.1,-0.29 0.04,0.15 0.07,0.29 0.1,0.29zm-0.21 -0.59c-0.03,-0.15 -0.07,-0.15 -0.1,-0.29 0.03,0.15 0.07,0.15 0.1,0.29zm-0.26 -0.74c-0.05,-0.15 -0.11,-0.3 -0.15,-0.45 0.05,0.15 0.11,0.3 0.15,0.45zm-0.24 -0.74c-0.05,-0.15 -0.09,-0.15 -0.13,-0.3 0.04,0.15 0.08,0.15 0.13,0.3zm-0.19 -0.45c-0.09,-0.29 -0.16,-0.45 -0.25,-0.74 0.08,0.29 0.16,0.45 0.25,0.74zm-0.34 -0.89c-0.05,-0.15 -0.09,-0.3 -0.14,-0.45 0.05,0.15 0.09,0.29 0.14,0.45zm-0.18 -0.59c-0.11,-0.3 -0.2,-0.59 -0.3,-0.75 0.1,0.3 0.19,0.45 0.3,0.75zm-0.36 -0.9c-0.04,-0.15 -0.1,-0.29 -0.15,-0.44 0.05,0.15 0.11,0.29 0.15,0.44zm-0.19 -0.59c-0.1,-0.29 -0.21,-0.44 -0.31,-0.74 0.1,0.3 0.21,0.45 0.31,0.74zm-0.35 -0.89c-0.06,-0.15 -0.12,-0.3 -0.18,-0.45 0.06,0.15 0.12,0.3 0.18,0.45zm-0.21 -0.45c-0.1,-0.29 -0.22,-0.59 -0.34,-0.89 0.12,0.29 0.24,0.59 0.34,0.89zm-0.37 -1.04c-0.06,-0.15 -0.12,-0.29 -0.19,-0.44 0.08,0.15 0.13,0.29 0.19,0.44zm-0.19 -0.44c-21.52,-53.3 -72.38,-94.72 -130.79,-126.19 58.42,31.48 109.27,72.89 130.79,126.19zm-130.97 -126.19c-0.25,-0.15 -0.53,-0.29 -0.79,-0.44 0.27,0.15 0.52,0.29 0.79,0.44zm-0.98 -0.59c-0.12,0 -0.25,-0.15 -0.39,-0.15 0.14,0 0.25,0.15 0.39,0.15zm-0.73 -0.29c-0.1,-0.15 -0.21,-0.15 -0.31,-0.15 0.1,0 0.21,0 0.31,0.15zm-0.9 -0.59c-0.11,0 -0.19,0 -0.32,-0.15 0.11,0.15 0.21,0.15 0.32,0.15zm-0.72 -0.29c-0.08,-0.15 -0.19,-0.15 -0.26,-0.15 0.07,0 0.18,0 0.26,0.15zm-0.9 -0.45c-0.08,-0.15 -0.16,-0.15 -0.24,-0.15 0.08,0 0.16,0 0.24,0.15zm-0.74 -0.45c-0.08,0 -0.13,-0.15 -0.19,-0.15 0.06,0 0.13,0.15 0.19,0.15zm-0.91 -0.45c-0.01,0 -0.05,0 -0.08,-0.15 0.03,0.15 0.08,0.15 0.08,0.15zm-0.76 -0.44c-0.02,0 -0.05,0 -0.1,0 0.03,0 0.08,0 0.1,0zm-0.86 -0.45l0 0 0 0zm-159.01 -60.28c-0.02,0 -0.02,0 -0.02,0 0,0 0.02,0 0.02,0zm-0.59 -0.15c-0.09,0 -0.18,0 -0.27,0 0.09,0 0.18,0 0.27,0zm-0.43 -0.15c-13.81,-3.71 -26.74,-6.98 -38.41,-9.8 0,0 0,0 0,0 11.67,2.82 24.6,6.09 38.41,9.8z"/>
   <path class="fil72" d="M1808.69 2100.53c318.93,-590.87 115.54,-1000.91 14.37,-1148.92 11.67,2.82 24.6,6.09 38.41,9.8 0.06,0 0.11,0 0.16,0.15 0.09,0 0.18,0 0.27,0 0.19,0 0.39,0.15 0.58,0.15 0,0 0,0 0.02,0 47.86,13.21 106.1,32.81 159.01,60.28l0 0c0.25,0.15 0.5,0.29 0.76,0.45 0.05,0 0.08,0 0.1,0 0.24,0.15 0.45,0.29 0.67,0.29 0.03,0.15 0.08,0.15 0.08,0.15 0.24,0.15 0.48,0.15 0.72,0.3 0.06,0 0.12,0.15 0.19,0.15 0.18,0.15 0.32,0.15 0.5,0.3 0.08,0 0.16,0 0.24,0.15 0.22,0 0.42,0.15 0.64,0.29 0.07,0 0.18,0 0.26,0.15 0.14,0 0.27,0.15 0.4,0.15 0.12,0.15 0.21,0.15 0.32,0.15 0.21,0.15 0.4,0.29 0.59,0.45 0.1,0 0.21,0 0.31,0.15 0.12,0 0.24,0 0.34,0.15 0.14,0 0.27,0.15 0.39,0.15 0.06,0 0.14,0.15 0.19,0.15 0.25,0.15 0.54,0.29 0.79,0.44 0.05,0 0.12,0 0.18,0 58.41,31.48 109.27,72.89 130.79,126.19l0 0c0.08,0.15 0.13,0.29 0.19,0.44 0.02,0 0.02,0 0.03,0.15 0.12,0.29 0.24,0.59 0.34,0.89 0.02,0 0.03,0 0.03,0 0.06,0.15 0.12,0.3 0.18,0.45 0.02,0 0.03,0 0.05,0.15 0.1,0.3 0.21,0.45 0.31,0.74 0.02,0.15 0.02,0.15 0.05,0.15 0.05,0.15 0.11,0.29 0.15,0.44 0.03,0 0.05,0 0.06,0.15 0.1,0.15 0.19,0.45 0.3,0.75 0.01,0 0.02,0.15 0.04,0.15 0.05,0.15 0.09,0.29 0.14,0.45 0.02,0 0.05,0 0.08,0.15 0.09,0.29 0.16,0.45 0.25,0.74 0.02,0 0.03,0 0.06,0.15 0.04,0.15 0.08,0.15 0.13,0.3 0.03,0.15 0.06,0.29 0.08,0.29 0.05,0.15 0.11,0.3 0.15,0.45 0.05,0.15 0.1,0.29 0.16,0.45 0.03,0.15 0.07,0.15 0.1,0.29 0.03,0.15 0.08,0.3 0.11,0.3 0.04,0.15 0.07,0.29 0.1,0.29 0.06,0.3 0.14,0.45 0.19,0.59 0.03,0.15 0.06,0.15 0.09,0.3 0.05,0.15 0.08,0.29 0.12,0.29 0.05,0.15 0.06,0.29 0.09,0.29 0.07,0.3 0.13,0.45 0.19,0.59 0.03,0.15 0.05,0.15 0.07,0.3 0.05,0.15 0.09,0.29 0.14,0.45 0.02,0 0.05,0.15 0.07,0.15 0.08,0.29 0.14,0.45 0.19,0.59 0.02,0.15 0.05,0.15 0.06,0.29 0.05,0.15 0.1,0.3 0.15,0.45 0.02,0 0.05,0.15 0.08,0.15 0.05,0.3 0.12,0.45 0.18,0.59 0.02,0.15 0.03,0.15 0.06,0.3 0.04,0.15 0.08,0.29 0.13,0.44 0.03,0 0.05,0.15 0.08,0.15 0.05,0.29 0.12,0.44 0.18,0.74 0.02,0 0.02,0 0.02,0 0.05,0.29 0.11,0.45 0.17,0.59 0.02,0.15 0.02,0.15 0.05,0.15 0.05,0.29 0.12,0.45 0.18,0.74 15.7,56.71 22.33,116.25 22.36,176.08 0.04,123.66 -28.17,248.51 -63.1,353.32 -0.08,0.3 -0.19,0.59 -0.29,0.9 -0.03,0.15 -0.06,0.15 -0.08,0.29 -0.07,0.15 -0.13,0.45 -0.21,0.59 -0.05,0.15 -0.13,0.45 -0.2,0.59 -0.03,0.15 -0.05,0.15 -0.08,0.15 -0.06,0.3 -0.13,0.45 -0.21,0.74 -0.03,0 -0.05,0.15 -0.08,0.15 -0.19,0.59 -0.37,1.18 -0.55,1.63l0 0c-48.26,142.38 -140.05,313.99 -314.45,397.43z"/>
   <path class="fil71" d="M2650.52 2757.01l0 0zm0.03 0c0,0 0,0 0,0 0,0 0,0 0,0zm0.03 0c-0.03,-0.59 -0.08,-1.03 -0.12,-1.48 0.03,0.45 0.08,1.04 0.12,1.48zm-0.16 -1.93c-0.03,-0.29 -0.06,-0.59 -0.09,-0.89 0.03,0.29 0.06,0.59 0.09,0.89zm-0.15 -1.48c-0.02,-0.3 -0.05,-0.59 -0.08,-0.9 0.03,0.3 0.06,0.59 0.08,0.9zm-0.11 -1.49c-0.05,-0.29 -0.05,-0.59 -0.1,-0.89 0.03,0.29 0.07,0.59 0.1,0.89zm-0.13 -1.34c-0.06,-0.44 -0.09,-0.89 -0.13,-1.34 0.04,0.45 0.07,0.9 0.13,1.34zm-0.19 -1.93c-0.03,-0.29 -0.06,-0.59 -0.09,-0.89 0.03,0.29 0.06,0.59 0.09,0.89zm-0.13 -1.48c-0.03,-0.15 -0.06,-0.45 -0.08,-0.74 0.02,0.29 0.05,0.59 0.08,0.74zm-0.14 -1.34c-0.03,-0.3 -0.05,-0.59 -0.08,-0.9 0.03,0.3 0.05,0.59 0.08,0.9zm-0.13 -1.49c-0.06,-0.29 -0.09,-0.74 -0.12,-1.19 0.02,0.45 0.05,0.9 0.12,1.19zm-0.19 -1.78c-0.03,-0.29 -0.06,-0.59 -0.09,-0.89 0.03,0.29 0.06,0.59 0.09,0.89zm-0.16 -1.48c-0.03,-0.29 -0.06,-0.59 -0.09,-0.74 0.03,0.29 0.06,0.45 0.09,0.74zm-0.15 -1.48c-0.02,-0.15 -0.05,-0.45 -0.08,-0.59 0.03,0.15 0.06,0.44 0.08,0.59zm-0.17 -1.34c-0.01,-0.29 -0.04,-0.44 -0.07,-0.74 0.03,0.3 0.06,0.45 0.07,0.74zm-0.2 -2.08c-0.03,-0.15 -0.03,-0.29 -0.06,-0.59 0,0.3 0.03,0.45 0.06,0.59zm-0.17 -1.34c-0.02,-0.15 -0.02,-0.29 -0.05,-0.59 0.03,0.15 0.05,0.45 0.05,0.59zm-0.13 -1.34c-0.03,-0.15 -0.06,-0.45 -0.09,-0.59 0.03,0.15 0.06,0.29 0.09,0.59zm-0.16 -1.34c-0.03,-0.15 -0.06,-0.45 -0.06,-0.59 0,0.15 0.03,0.44 0.06,0.59zm-0.45 -3.57c0,-0.15 -0.02,-0.29 -0.02,-0.29 0,0 0.02,0.15 0.02,0.29zm-0.13 -1.19c-0.02,-0.15 -0.05,-0.45 -0.05,-0.59 0,0.15 0.03,0.45 0.05,0.59zm-0.16 -1.34c-0.03,-0.15 -0.05,-0.3 -0.05,-0.45 0.02,0.15 0.02,0.3 0.05,0.45zm-0.46 -3.71c-0.03,0 -0.03,-0.15 -0.03,-0.15 0,0 0,0.15 0.03,0.15zm-0.16 -1.19c0,0 -0.03,-0.15 -0.06,-0.29 0.03,0.15 0.06,0.29 0.06,0.29zm-0.16 -1.19c-0.03,-0.15 -0.03,-0.29 -0.05,-0.45 0.02,0.15 0.02,0.3 0.05,0.45zm-0.19 -1.34c0,-0.15 0,-0.15 -0.03,-0.15 0.03,0 0.03,0.15 0.03,0.15zm-0.46 -3.41c-0.03,-0.15 -0.03,-0.15 -0.06,-0.3 0.03,0 0.06,0.15 0.06,0.3zm-0.16 -1.34c-0.03,0 -0.06,-0.15 -0.06,-0.29 0,0.15 0.03,0.29 0.06,0.29zm-0.19 -1.18c-0.02,-0.15 -0.02,-0.3 -0.05,-0.45 0.03,0.15 0.03,0.29 0.05,0.45zm-0.55 -3.71c0,0 0,0 0,0 0,0 0,0 0,0zm-0.16 -1.04c0,-0.15 -0.02,-0.15 -0.02,-0.3 0,0.15 0.02,0.15 0.02,0.3zm-0.19 -1.19c0,-0.15 -0.02,-0.29 -0.02,-0.29 0,0 0.02,0.15 0.02,0.29zm-0.74 -4.9c0,0 0,0 -0.03,-0.15 0.03,0.15 0.03,0.15 0.03,0.15zm-0.19 -1.19c0,0 0,0 -0.03,-0.15 0,0.15 0.03,0.15 0.03,0.15zm-0.98 -5.93l0 0 0 0zm-1.01 -5.8c0,0 -0.02,-0.15 -0.02,-0.15 0.02,0 0.02,0 0.02,0.15zm-1.27 -7.12c-0.02,0 0,0 -0.02,0l0.02 0z"/>
   <path class="fil73" d="M2441.82 2992.61c68.03,-313.1 -200.7,-707.85 -333.53,-879.17 128.06,44.84 462.19,195.67 532.16,568.59 0.02,0 0,0 0.02,0 0.42,2.38 0.85,4.6 1.25,6.98 0,0 0.02,0.15 0.02,0.15 0.33,1.94 0.69,3.87 1.01,5.8l0 0c0.33,1.93 0.66,3.86 0.95,5.79 0.03,0.15 0.03,0.15 0.03,0.15 0.06,0.45 0.12,0.74 0.16,1.04 0.03,0.15 0.03,0.15 0.03,0.15 0.25,1.64 0.46,3.12 0.72,4.61 0,0 0.02,0.15 0.02,0.29 0.05,0.29 0.11,0.59 0.17,0.89 0,0.15 0.02,0.15 0.02,0.3 0.05,0.29 0.12,0.74 0.16,1.04 0,0 0,0 0,0 0.18,1.18 0.34,2.22 0.5,3.26 0.03,0.15 0.03,0.29 0.05,0.45 0.03,0.29 0.08,0.59 0.13,0.89 0,0.15 0.03,0.29 0.06,0.29 0.03,0.45 0.08,0.75 0.1,1.04 0.03,0.15 0.03,0.15 0.06,0.3 0.16,1.03 0.3,2.08 0.43,3.26 0.03,0 0.03,0 0.03,0.15 0.05,0.3 0.08,0.59 0.15,0.89 0.02,0.15 0.02,0.3 0.05,0.45 0.03,0.3 0.08,0.59 0.1,0.9 0.03,0.15 0.06,0.29 0.06,0.29 0.06,0.45 0.08,0.74 0.13,1.04 0,0 0,0.15 0.03,0.15 0.13,1.04 0.27,2.23 0.42,3.26 0,0.15 0.02,0.3 0.05,0.45 0.03,0.15 0.05,0.59 0.12,0.74 0,0.15 0.03,0.45 0.05,0.59 0.03,0.3 0.06,0.59 0.12,0.9 0,0 0.02,0.15 0.02,0.29 0.13,1.04 0.25,2.08 0.39,2.97 0,0.15 0.03,0.44 0.06,0.59 0.03,0.15 0.05,0.44 0.07,0.74 0.03,0.15 0.06,0.45 0.09,0.59 0.03,0.29 0.05,0.45 0.08,0.74 0.03,0.3 0.03,0.45 0.05,0.59 0.03,0.29 0.09,0.59 0.11,0.74 0.03,0.3 0.03,0.45 0.06,0.59 0.05,0.59 0.1,0.9 0.13,1.34 0.03,0.3 0.06,0.45 0.07,0.74 0.03,0.3 0.06,0.45 0.09,0.75 0.03,0.15 0.06,0.44 0.08,0.59 0.02,0.29 0.05,0.59 0.05,0.74 0.03,0.15 0.06,0.45 0.09,0.74 0.03,0.15 0.05,0.45 0.07,0.59 0.03,0.29 0.06,0.59 0.09,0.89 0.03,0.15 0.05,0.45 0.08,0.59 0.02,0.45 0.05,0.9 0.12,1.19 0.03,0.3 0.03,0.45 0.05,0.59 0.03,0.3 0.05,0.59 0.08,0.9 0.03,0.15 0.03,0.29 0.06,0.59 0.02,0.29 0.05,0.59 0.08,0.74 0.02,0.29 0.04,0.44 0.04,0.59 0.03,0.29 0.06,0.59 0.09,0.89 0.03,0.3 0.06,0.45 0.06,0.59 0.04,0.45 0.07,0.9 0.13,1.34 0,0.15 0.03,0.3 0.03,0.45 0.05,0.29 0.05,0.59 0.1,0.89 0,0.3 0.03,0.45 0.03,0.59 0.03,0.3 0.06,0.59 0.08,0.9 0.03,0.15 0.03,0.29 0.05,0.59 0.03,0.29 0.06,0.59 0.09,0.89 0.03,0.15 0.03,0.3 0.05,0.45 0.03,0.45 0.08,0.89 0.12,1.48l0 0c0,0 0,0 -0.03,0 0,0 0,0 0,0 0,0 0,0 -0.03,0l0 0c-1.82,3.57 -61.65,118.62 -208.7,235.6z"/>
  </g>
 </g>
</svg>
