<?xml version="1.0" encoding="UTF-8"?>
<!DOCTYPE svg PUBLIC "-//W3C//DTD SVG 1.1//EN" "http://www.w3.org/Graphics/SVG/1.1/DTD/svg11.dtd">
<!-- Creator: CorelDRAW 2018 (64 Bit) -->
<svg xmlns="http://www.w3.org/2000/svg" xml:space="preserve" width="43.0828mm" height="8.341mm" version="1.1" style="shape-rendering:geometricPrecision; text-rendering:geometricPrecision; image-rendering:optimizeQuality; fill-rule:evenodd; clip-rule:evenodd"
viewBox="0 0 1596.79 309.14"
 xmlns:xlink="http://www.w3.org/1999/xlink">
 <defs>
  <style type="text/css">
   <![CDATA[
    .fil2 {fill:#0F67CB}
    .fil0 {fill:black;fill-rule:nonzero}
    .fil1 {fill:#07A9F1;fill-rule:nonzero}
   ]]>
  </style>
 </defs>
 <g id="Capa_x0020_1">
  <metadata id="CorelCorpID_0Corel-Layer"/>
  <path class="fil0" d="M517.57 186.31c0,-13.28 -3.88,-24.49 -11.64,-33.63 -7.94,-9.14 -18.36,-15 -31.3,-17.59 13.28,-7.59 19.92,-19.49 19.92,-35.7 0,-14.14 -4.48,-25.18 -13.45,-33.11 -8.45,-7.41 -19.83,-11.12 -34.14,-11.12l-45.01 0 0 184.68 57.68 0c16.21,0 29.92,-5 41.13,-15 11.21,-9.83 16.81,-22.68 16.81,-38.54zm-33.62 -86.91c0,10 -3.28,18.11 -9.83,24.31 -6.55,6.21 -14.83,9.31 -24.83,9.31l-36.99 0 0 -67.25 35.44 0c10.17,0 18.8,3.1 25.87,9.31 6.9,5.86 10.35,13.97 10.35,24.31zm23.28 86.91c0,12.76 -4.66,23.11 -13.97,31.04 -9.14,7.94 -20.26,11.9 -33.37,11.9l-47.59 0 0 -85.62 47.59 0c13.28,0 24.31,3.79 33.11,11.38 9.48,7.93 14.23,18.36 14.23,31.3z"/>
  <polygon id="1" class="fil0" points="557.15,239.85 557.15,55.17 546.8,55.17 546.8,239.85 "/>
  <path class="fil1" d="M725.41 82.85l-25.18 20.18c-6.65,-6.89 -12.68,-12.01 -18.11,-15.42 -5.37,-3.35 -13.17,-5.06 -23.41,-5.06 -11.16,0 -20.18,2.5 -27.13,7.56 -6.95,5 -10.43,11.52 -10.43,19.45 0,6.83 3.05,12.92 9.08,18.17 6.1,5.3 16.4,11.03 31.03,17.38 14.57,6.28 25.97,12.13 34.08,17.5 8.17,5.43 14.81,11.4 20.06,17.92 5.24,6.59 9.08,13.48 11.65,20.73 2.56,7.19 3.84,14.88 3.84,22.99 0,18.9 -6.89,35 -20.61,48.29 -13.78,13.35 -30.43,20 -49.99,20 -19.02,0 -35.85,-5.18 -50.48,-15.61 -14.57,-10.43 -25.79,-26.1 -33.65,-46.88l31.09 -8.84c11.28,25.61 28.53,38.41 51.76,38.41 11.28,0 20.67,-3.35 28.11,-10.06 7.5,-6.77 11.22,-15.24 11.22,-25.48 0,-6.16 -1.95,-12.32 -5.86,-18.48 -3.9,-6.22 -8.72,-11.34 -14.51,-15.3 -5.79,-4.02 -15,-8.72 -27.68,-14.02 -12.68,-5.37 -22.44,-10.18 -29.32,-14.57 -6.89,-4.33 -12.81,-9.45 -17.86,-15.49 -5,-5.97 -8.66,-11.95 -11.04,-17.92 -2.32,-5.92 -3.47,-12.32 -3.47,-19.08 0,-16.28 6.52,-30.18 19.63,-41.64 13.11,-11.46 29.02,-17.19 47.67,-17.19 12.44,0 25,2.68 37.74,8.05 12.68,5.37 23.29,13.47 31.76,24.45z"/>
  <polygon id="1" class="fil1" points="755.41,57.68 895.15,57.68 895.15,88.77 840.65,88.77 840.65,285.21 809.55,285.21 809.55,88.77 755.41,88.77 "/>
  <path id="2" class="fil1" d="M912.71 169.86c0,-32.86 12.38,-60.97 37.13,-84.38 24.81,-23.41 54.57,-35.12 89.32,-35.12 33.96,0 63.16,11.83 87.73,35.42 24.51,23.59 36.76,51.58 36.76,84.08 0,34.32 -12.13,63.34 -36.34,87.06 -24.27,23.72 -53.96,35.61 -89.2,35.61 -34.81,0 -64.38,-11.95 -88.77,-35.85 -24.45,-23.9 -36.64,-52.86 -36.64,-86.82zm218.02 1.77c0,-25.06 -9.02,-46.15 -27.13,-63.35 -18.11,-17.13 -40.42,-25.73 -66.88,-25.73 -25.12,0 -46.64,8.72 -64.57,26.22 -17.92,17.43 -26.89,38.41 -26.89,62.86 0,24.81 9.21,45.79 27.62,62.98 18.41,17.13 40.91,25.73 67.61,25.73 24.57,0 45.73,-8.78 63.53,-26.28 17.81,-17.5 26.7,-38.35 26.7,-62.43z"/>
  <path id="3" class="fil1" d="M1388.27 65.36l0 35.12c-24.51,-11.95 -47.13,-17.93 -67.74,-17.93 -26.4,0 -48.72,8.54 -66.82,25.55 -18.11,17.07 -27.13,37.98 -27.13,62.8 0,25.3 9.27,46.4 27.8,63.35 18.48,16.89 41.7,25.36 69.57,25.36 20.24,0 41.7,-6.34 64.32,-19.02l0 35.48c-20.61,10.97 -42.92,16.46 -67.01,16.46 -35.3,0 -65.42,-11.89 -90.42,-35.73 -25.06,-23.84 -37.56,-52.61 -37.56,-86.27 0,-33.05 12.32,-61.34 36.89,-84.87 24.63,-23.54 54.26,-35.3 88.95,-35.3 22.26,0 45.3,5 69.14,15z"/>
  <polygon id="4" class="fil1" points="1425.22,57.68 1456.31,57.68 1456.31,150.35 1552.52,57.68 1596.05,57.68 1486.19,163.52 1596.79,285.21 1556.97,285.21 1456.31,174.49 1456.31,285.21 1425.22,285.21 "/>
  <path class="fil2" d="M6.59 198.63c1.09,6.95 4.83,12.49 6.45,18.84l1.84 2.85c3.27,11.42 21.04,33.38 27.4,40.19 22.3,23.91 55.22,42.02 90.22,46.97 26.5,3.75 39.13,0.53 63.55,-3.2 0.85,-0.56 22.39,-6.89 37.22,-15.51 13.16,-7.66 21.43,-14.27 31.16,-23.27 8.52,-7.88 16.45,-18.04 23.92,-29.69 10.53,-16.4 15.8,-35.08 17.48,-37.22l0.69 -3.76c4.01,-23.8 7.46,-35.25 3.61,-61.9 -1.44,-9.92 -3.55,-18.14 -6.46,-27.3 -2.79,-8.79 -7.63,-16.85 -9.97,-23.82 -3.66,1.35 -12.45,10.94 -15.66,14.22l-42.84 42.96c-19.31,19.07 -38.11,37.65 -57.52,56.62 -4.99,4.88 -16.36,18.01 -23.13,20.52 -3.82,1.42 -8.29,1.37 -12.06,0.09 -7.25,-2.45 -23.62,-20.76 -29.86,-26.8l-28.73 -28.72c-12.71,-11.7 -6.36,-31.13 12.59,-32.07l8.43 1.9 32.19 31.37c3.04,2.96 7.56,7.21 10.47,10.84 3.51,-1.09 6.03,-4.76 8.48,-7.18l53.67 -53.57c6.77,-6.47 59.96,-58.37 61.35,-61.15 -3.57,-5.07 -14.42,-14.53 -20.23,-18.76l-22.88 -14.97c-3.15,-0.92 -5.42,-2.75 -8.48,-3.51l-1.42 -1.15 -19.04 -6.26c-26.76,-9.11 -64.25,-7.56 -90.27,0.97 -48.91,16.04 -86.74,52.93 -102.12,102.53 -8.37,27 -9.25,61.69 -0.03,88.96z"/>
 </g>
</svg>
