<?xml version="1.0" encoding="UTF-8"?>
<!DOCTYPE svg PUBLIC "-//W3C//DTD SVG 1.1//EN" "http://www.w3.org/Graphics/SVG/1.1/DTD/svg11.dtd">
<!-- Creator: CorelDRAW 2018 (64 Bit) -->
<svg xmlns="http://www.w3.org/2000/svg" xml:space="preserve" width="217.17mm" height="85.5133mm" version="1.1" style="shape-rendering:geometricPrecision; text-rendering:geometricPrecision; image-rendering:optimizeQuality; fill-rule:evenodd; clip-rule:evenodd"
viewBox="0 0 20057.32 7897.81"
 xmlns:xlink="http://www.w3.org/1999/xlink">
 <defs>
  <style type="text/css">
   <![CDATA[
    .fil5 {fill:none}
    .fil2 {fill:#49DDFF;fill-opacity:0.058824}
    .fil0 {fill:white;fill-opacity:0.109804}
    .fil3 {fill:#14CFF0;fill-opacity:0.149020}
    .fil1 {fill:#03BBF8;fill-opacity:0.200000}
    .fil4 {fill:#03BBF8;fill-opacity:0.211765}
   ]]>
  </style>
 </defs>
 <g id="Capa_x0020_1">
  <metadata id="CorelCorpID_0Corel-Layer"/>
  <path class="fil0" d="M15368.08 2461.66c-23.04,0 -44.55,3.07 -64.52,9.22 -55.3,-95.25 -159.76,-159.77 -278.05,-159.77 -6.15,0 -10.76,0 -16.9,1.53 -89.1,-162.84 -261.15,-274.98 -459.32,-274.98 -192.03,0 -359.47,102.92 -450.11,256.54 -4.61,0 -9.22,0 -13.83,0 -202.78,0 -367.15,164.38 -367.15,367.16 0,202.78 164.37,367.16 367.15,367.16 58.38,0 115.22,-13.83 164.38,-38.41 84.49,59.91 188.95,95.25 301.1,95.25 142.87,0 271.91,-56.84 365.62,-149.01 35.34,12.28 72.21,19.97 112.15,19.97 87.56,0 167.44,-35.34 225.81,-92.17 33.8,21.5 73.74,33.79 116.76,33.79 119.82,0 218.14,-96.78 218.14,-218.14 0,-121.36 -101.39,-218.14 -221.21,-218.14z"/>
  <path class="fil1" d="M8524.2 5018.26c-589.35,-241.22 -1318.85,-246.19 -1915.4,-14.92l-1437.44 559.54 -1724.93 579.41 -3446.44 1031.19 0 724.31 17191.04 0 -4243.1 -1352.65 -4423.74 -1526.89z"/>
  <path class="fil2" d="M3291.9 4977.45c-406.09,-220.58 -909.18,-223.86 -1318.86,-13.16l-1735.71 895.54 -237.33 104.98 0 1933 9770.01 0 -1756.11 -740.77 -4722 -2179.58z"/>
  <path class="fil3" d="M17865.15 3841.17c-506.7,-353.03 -1124.81,-344.07 -1624.31,22.33l-4571.07 2846.44 -2068.01 1187.86 10455.56 0 0 -2639.19 -2192.16 -1417.44z"/>
  <path class="fil0" d="M16779.91 3272.31c-18.52,0 -33.95,3.08 -49.38,6.18 -46.3,-194.44 -222.21,-336.41 -429,-336.41 -157.41,0 -296.29,83.33 -376.54,209.87 -27.77,-9.26 -58.64,-12.35 -92.59,-12.35 -169.75,0 -308.64,138.89 -308.64,308.64 0,169.74 138.89,308.63 308.64,308.63 61.73,0 117.28,-18.52 163.58,-49.37 80.24,74.07 185.18,120.37 302.46,120.37 123.45,0 234.57,-49.38 314.81,-132.72 43.2,40.12 101.84,64.82 163.57,64.82 135.8,0 243.82,-108.02 243.82,-243.82 3.08,-135.81 -104.94,-243.83 -240.74,-243.83z"/>
  <path class="fil4" d="M13180.47 5643.75c-589.35,-241.22 -1318.86,-246.19 -1915.4,-14.91l-1437.44 559.52 -1724.94 579.42 -2822.67 1130.01 14187 0 -1862.82 -727.16 -4423.74 -1526.89z"/>
  <rect class="fil5" y="0" width="20057.31" height="7897.81"/>
  <path class="fil0" d="M14412.05 3551.63c9.32,0 18.01,1.39 26.09,4.19 22.36,-43.3 64.59,-72.62 112.43,-72.62 2.48,0 4.35,0 6.83,0.69 36.03,-74.02 105.59,-124.99 185.72,-124.99 77.65,0 145.35,46.79 182,116.61 1.87,0 3.73,0 5.59,0 82,0 148.46,74.72 148.46,166.89 0,92.16 -66.47,166.88 -148.46,166.88 -23.6,0 -46.59,-6.28 -66.46,-17.46 -34.16,27.24 -76.4,43.29 -121.75,43.29 -57.77,0 -109.94,-25.83 -147.84,-67.73 -14.29,5.59 -29.19,9.08 -45.34,9.08 -35.41,0 -67.71,-16.06 -91.31,-41.9 -13.67,9.78 -29.81,15.37 -47.21,15.37 -48.44,0 -88.2,-44 -88.2,-99.16 0,-55.17 41,-99.16 89.45,-99.16z"/>
  <path class="fil0" d="M13703.28 3660.31c-18.52,0 -33.95,3.08 -49.38,6.18 -46.3,-194.44 -222.21,-336.41 -429,-336.41 -157.41,0 -296.29,83.33 -376.54,209.87 -27.77,-9.26 -58.64,-12.35 -92.59,-12.35 -169.75,0 -308.64,138.89 -308.64,308.64 0,169.74 138.89,308.63 308.64,308.63 61.73,0 117.28,-18.52 163.58,-49.37 80.24,74.07 185.18,120.37 302.46,120.37 123.45,0 234.57,-49.38 314.81,-132.72 43.2,40.12 101.84,64.82 163.57,64.82 135.8,0 243.82,-108.02 243.82,-243.82 3.08,-135.81 -104.94,-243.83 -240.74,-243.83z"/>
 </g>
</svg>
